<?xml version="1.0" encoding="UTF-8" standalone="no"?>
<!DOCTYPE svg PUBLIC "-//W3C//DTD SVG 1.1//EN"
 "http://www.w3.org/Graphics/SVG/1.1/DTD/svg11.dtd">
<!-- Generated by graphviz version 2.38.0 (20140413.2041)
 -->
<!-- Title: G Pages: 1 -->
<svg width="619pt" height="2070pt"
 viewBox="0.00 0.00 618.77 2070.00" xmlns="http://www.w3.org/2000/svg" xmlns:xlink="http://www.w3.org/1999/xlink">
<g id="graph0" class="graph" transform="scale(1 1) rotate(0) translate(4 2066)">
<title>G</title>
<polygon fill="white" stroke="none" points="-4,4 -4,-2066 614.773,-2066 614.773,4 -4,4"/>
<g id="clust1" class="cluster"><title>cluster_Global</title>
<path fill="none" stroke="gray" d="M72.3864,-260C72.3864,-260 590.773,-260 590.773,-260 596.773,-260 602.773,-266 602.773,-272 602.773,-272 602.773,-2042 602.773,-2042 602.773,-2048 596.773,-2054 590.773,-2054 590.773,-2054 72.3864,-2054 72.3864,-2054 66.3864,-2054 60.3864,-2048 60.3864,-2042 60.3864,-2042 60.3864,-272 60.3864,-272 60.3864,-266 66.3864,-260 72.3864,-260"/>
<text text-anchor="middle" x="331.58" y="-2041.2" font-family="Times New Roman,serif" font-size="11.00" fill="gray">Global</text>
</g>
<g id="clust2" class="cluster"><title>cluster_\Site</title>
<path fill="none" stroke="gray" d="M80.3864,-268C80.3864,-268 582.773,-268 582.773,-268 588.773,-268 594.773,-274 594.773,-280 594.773,-280 594.773,-2014 594.773,-2014 594.773,-2020 588.773,-2026 582.773,-2026 582.773,-2026 80.3864,-2026 80.3864,-2026 74.3864,-2026 68.3864,-2020 68.3864,-2014 68.3864,-2014 68.3864,-280 68.3864,-280 68.3864,-274 74.3864,-268 80.3864,-268"/>
<text text-anchor="middle" x="331.58" y="-2013.2" font-family="Times New Roman,serif" font-size="11.00" fill="gray">Site</text>
</g>
<g id="clust5" class="cluster"><title>cluster_\Site\Controller</title>
<path fill="none" stroke="gray" d="M88.3864,-1412C88.3864,-1412 516.273,-1412 516.273,-1412 522.273,-1412 528.273,-1418 528.273,-1424 528.273,-1424 528.273,-1986 528.273,-1986 528.273,-1992 522.273,-1998 516.273,-1998 516.273,-1998 88.3864,-1998 88.3864,-1998 82.3864,-1998 76.3864,-1992 76.3864,-1986 76.3864,-1986 76.3864,-1424 76.3864,-1424 76.3864,-1418 82.3864,-1412 88.3864,-1412"/>
<text text-anchor="middle" x="302.33" y="-1985.2" font-family="Times New Roman,serif" font-size="11.00" fill="gray">Controller</text>
</g>
<g id="clust6" class="cluster"><title>cluster_\Site\Controller\Test</title>
<path fill="none" stroke="gray" d="M451.773,-1898C451.773,-1898 497.773,-1898 497.773,-1898 503.773,-1898 509.773,-1904 509.773,-1910 509.773,-1910 509.773,-1958 509.773,-1958 509.773,-1964 503.773,-1970 497.773,-1970 497.773,-1970 451.773,-1970 451.773,-1970 445.773,-1970 439.773,-1964 439.773,-1958 439.773,-1958 439.773,-1910 439.773,-1910 439.773,-1904 445.773,-1898 451.773,-1898"/>
<text text-anchor="middle" x="474.773" y="-1957.2" font-family="Times New Roman,serif" font-size="11.00" fill="gray">Test</text>
</g>
<g id="clust3" class="cluster"><title>cluster_\Site\TwigExtension</title>
<path fill="none" stroke="gray" d="M374.773,-1296C374.773,-1296 574.773,-1296 574.773,-1296 580.773,-1296 586.773,-1302 586.773,-1308 586.773,-1308 586.773,-1392 586.773,-1392 586.773,-1398 580.773,-1404 574.773,-1404 574.773,-1404 374.773,-1404 374.773,-1404 368.773,-1404 362.773,-1398 362.773,-1392 362.773,-1392 362.773,-1308 362.773,-1308 362.773,-1302 368.773,-1296 374.773,-1296"/>
<text text-anchor="middle" x="474.773" y="-1391.2" font-family="Times New Roman,serif" font-size="11.00" fill="gray">TwigExtension</text>
</g>
<g id="clust4" class="cluster"><title>cluster_\Site\TwigExtension\Node</title>
<path fill="none" stroke="gray" d="M382.773,-1304C382.773,-1304 566.773,-1304 566.773,-1304 572.773,-1304 578.773,-1310 578.773,-1316 578.773,-1316 578.773,-1364 578.773,-1364 578.773,-1370 572.773,-1376 566.773,-1376 566.773,-1376 382.773,-1376 382.773,-1376 376.773,-1376 370.773,-1370 370.773,-1364 370.773,-1364 370.773,-1316 370.773,-1316 370.773,-1310 376.773,-1304 382.773,-1304"/>
<text text-anchor="middle" x="474.773" y="-1363.2" font-family="Times New Roman,serif" font-size="11.00" fill="gray">Node</text>
</g>
<g id="clust7" class="cluster"><title>cluster_\Site\Twig</title>
<path fill="none" stroke="gray" d="M405.273,-778C405.273,-778 544.273,-778 544.273,-778 550.273,-778 556.273,-784 556.273,-790 556.273,-790 556.273,-1276 556.273,-1276 556.273,-1282 550.273,-1288 544.273,-1288 544.273,-1288 405.273,-1288 405.273,-1288 399.273,-1288 393.273,-1282 393.273,-1276 393.273,-1276 393.273,-790 393.273,-790 393.273,-784 399.273,-778 405.273,-778"/>
<text text-anchor="middle" x="474.773" y="-1275.2" font-family="Times New Roman,serif" font-size="11.00" fill="gray">Twig</text>
</g>
<g id="clust8" class="cluster"><title>cluster_\Site\Twig\TokenParser</title>
<path fill="none" stroke="gray" d="M413.273,-1188C413.273,-1188 536.273,-1188 536.273,-1188 542.273,-1188 548.273,-1194 548.273,-1200 548.273,-1200 548.273,-1248 548.273,-1248 548.273,-1254 542.273,-1260 536.273,-1260 536.273,-1260 413.273,-1260 413.273,-1260 407.273,-1260 401.273,-1254 401.273,-1248 401.273,-1248 401.273,-1200 401.273,-1200 401.273,-1194 407.273,-1188 413.273,-1188"/>
<text text-anchor="middle" x="474.773" y="-1247.2" font-family="Times New Roman,serif" font-size="11.00" fill="gray">TokenParser</text>
</g>
<g id="clust9" class="cluster"><title>cluster_\Site\Twig\Filter</title>
<path fill="none" stroke="gray" d="M429.773,-1108C429.773,-1108 519.773,-1108 519.773,-1108 525.773,-1108 531.773,-1114 531.773,-1120 531.773,-1120 531.773,-1168 531.773,-1168 531.773,-1174 525.773,-1180 519.773,-1180 519.773,-1180 429.773,-1180 429.773,-1180 423.773,-1180 417.773,-1174 417.773,-1168 417.773,-1168 417.773,-1120 417.773,-1120 417.773,-1114 423.773,-1108 429.773,-1108"/>
<text text-anchor="middle" x="474.773" y="-1167.2" font-family="Times New Roman,serif" font-size="11.00" fill="gray">Filter</text>
</g>
<g id="clust10" class="cluster"><title>cluster_\Site\Twig\Extension</title>
<path fill="none" stroke="gray" d="M416.273,-866C416.273,-866 533.273,-866 533.273,-866 539.273,-866 545.273,-872 545.273,-878 545.273,-878 545.273,-1088 545.273,-1088 545.273,-1094 539.273,-1100 533.273,-1100 533.273,-1100 416.273,-1100 416.273,-1100 410.273,-1100 404.273,-1094 404.273,-1088 404.273,-1088 404.273,-878 404.273,-878 404.273,-872 410.273,-866 416.273,-866"/>
<text text-anchor="middle" x="474.773" y="-1087.2" font-family="Times New Roman,serif" font-size="11.00" fill="gray">Extension</text>
</g>
<g id="clust11" class="cluster"><title>cluster_\Site\Twig\Node</title>
<path fill="none" stroke="gray" d="M436.773,-786C436.773,-786 512.773,-786 512.773,-786 518.773,-786 524.773,-792 524.773,-798 524.773,-798 524.773,-846 524.773,-846 524.773,-852 518.773,-858 512.773,-858 512.773,-858 436.773,-858 436.773,-858 430.773,-858 424.773,-852 424.773,-846 424.773,-846 424.773,-798 424.773,-798 424.773,-792 430.773,-786 436.773,-786"/>
<text text-anchor="middle" x="474.773" y="-845.2" font-family="Times New Roman,serif" font-size="11.00" fill="gray">Node</text>
</g>
<g id="clust12" class="cluster"><title>cluster_\Site\Service</title>
<path fill="none" stroke="gray" d="M446.773,-590C446.773,-590 502.773,-590 502.773,-590 508.773,-590 514.773,-596 514.773,-602 514.773,-602 514.773,-758 514.773,-758 514.773,-764 508.773,-770 502.773,-770 502.773,-770 446.773,-770 446.773,-770 440.773,-770 434.773,-764 434.773,-758 434.773,-758 434.773,-602 434.773,-602 434.773,-596 440.773,-590 446.773,-590"/>
<text text-anchor="middle" x="474.773" y="-757.2" font-family="Times New Roman,serif" font-size="11.00" fill="gray">Service</text>
</g>
<g id="clust14" class="cluster"><title>cluster_\Site\Util</title>
<path fill="none" stroke="gray" d="M429.773,-510C429.773,-510 519.773,-510 519.773,-510 525.773,-510 531.773,-516 531.773,-522 531.773,-522 531.773,-570 531.773,-570 531.773,-576 525.773,-582 519.773,-582 519.773,-582 429.773,-582 429.773,-582 423.773,-582 417.773,-576 417.773,-570 417.773,-570 417.773,-522 417.773,-522 417.773,-516 423.773,-510 429.773,-510"/>
<text text-anchor="middle" x="474.773" y="-569.2" font-family="Times New Roman,serif" font-size="11.00" fill="gray">Util</text>
</g>
<g id="clust13" class="cluster"><title>cluster_\Site\Model</title>
<path fill="none" stroke="gray" d="M446.773,-322C446.773,-322 502.773,-322 502.773,-322 508.773,-322 514.773,-328 514.773,-334 514.773,-334 514.773,-490 514.773,-490 514.773,-496 508.773,-502 502.773,-502 502.773,-502 446.773,-502 446.773,-502 440.773,-502 434.773,-496 434.773,-490 434.773,-490 434.773,-334 434.773,-334 434.773,-328 440.773,-322 446.773,-322"/>
<text text-anchor="middle" x="474.773" y="-489.2" font-family="Times New Roman,serif" font-size="11.00" fill="gray">Model</text>
</g>
<!-- \\Site\\TwigExtension\\Node\\Twig_Extensions_Node_Trans -->
<g id="node1" class="node"><title>\\Site\\TwigExtension\\Node\\Twig_Extensions_Node_Trans</title>
<polygon fill="none" stroke="black" points="570.773,-1348 378.773,-1348 378.773,-1312 570.773,-1312 570.773,-1348"/>
<text text-anchor="middle" x="474.773" y="-1327.2" font-family="Courier,monospace" font-size="11.00">Twig_Extensions_Node_Trans</text>
</g>
<!-- \\Twig_Node -->
<g id="node28" class="node"><title>\\Twig_Node</title>
<ellipse fill="none" stroke="black" cx="153.386" cy="-234" rx="56.59" ry="18"/>
<text text-anchor="middle" x="153.386" y="-230.3" font-family="Times New Roman,serif" font-size="14.00" fill="gray">\Twig_Node</text>
</g>
<!-- \\Site\\TwigExtension\\Node\\Twig_Extensions_Node_Trans&#45;&gt;\\Twig_Node -->
<g id="edge1" class="edge"><title>\\Site\\TwigExtension\\Node\\Twig_Extensions_Node_Trans&#45;&gt;\\Twig_Node</title>
<path fill="none" stroke="black" d="M425.126,-1311.95C402.859,-1301.29 378.08,-1285.58 362.773,-1264 242.414,-1094.33 171.127,-409.623 156.993,-262.098"/>
<polygon fill="none" stroke="black" points="160.468,-261.673 156.039,-252.048 153.5,-262.334 160.468,-261.673"/>
</g>
<!-- \\Site\\Controller\\Test\\Test -->
<g id="node2" class="node"><title>\\Site\\Controller\\Test\\Test</title>
<polygon fill="none" stroke="black" points="501.773,-1942 447.773,-1942 447.773,-1906 501.773,-1906 501.773,-1942"/>
<text text-anchor="middle" x="474.773" y="-1921.2" font-family="Courier,monospace" font-size="11.00">Test</text>
</g>
<!-- \\Site\\Controller\\AbstractController -->
<g id="node8" class="node"><title>\\Site\\Controller\\AbstractController</title>
<polygon fill="none" stroke="black" points="222.386,-1699 84.3864,-1699 84.3864,-1663 222.386,-1663 222.386,-1699"/>
<text text-anchor="start" x="119.386" y="-1684.2" font-family="Courier,monospace" font-size="11.00">«abstract»</text>
<text text-anchor="start" x="92.3864" y="-1672.2" font-family="Courier,monospace" font-size="11.00">AbstractController</text>
</g>
<!-- \\Site\\Controller\\Test\\Test&#45;&gt;\\Site\\Controller\\AbstractController -->
<g id="edge13" class="edge"><title>\\Site\\Controller\\Test\\Test&#45;&gt;\\Site\\Controller\\AbstractController</title>
<path fill="none" stroke="black" d="M447.559,-1923.28C424.038,-1921.63 389.247,-1916.64 362.773,-1902 274.984,-1853.44 202.593,-1755.01 171.195,-1707.64"/>
<polygon fill="none" stroke="black" points="174.043,-1705.61 165.642,-1699.15 168.184,-1709.44 174.043,-1705.61"/>
</g>
<!-- \\Site\\Controller\\UserSave -->
<g id="node3" class="node"><title>\\Site\\Controller\\UserSave</title>
<polygon fill="none" stroke="black" points="510.273,-1888 439.273,-1888 439.273,-1852 510.273,-1852 510.273,-1888"/>
<text text-anchor="middle" x="474.773" y="-1867.2" font-family="Courier,monospace" font-size="11.00">UserSave</text>
</g>
<!-- \\Site\\Controller\\UserSave&#45;&gt;\\Site\\Controller\\AbstractController -->
<g id="edge2" class="edge"><title>\\Site\\Controller\\UserSave&#45;&gt;\\Site\\Controller\\AbstractController</title>
<path fill="none" stroke="black" d="M439.231,-1865.45C416.653,-1861.56 386.974,-1854.68 362.773,-1843 288.799,-1807.29 216.251,-1742.17 179.4,-1706.32"/>
<polygon fill="none" stroke="black" points="181.676,-1703.65 172.09,-1699.14 176.77,-1708.65 181.676,-1703.65"/>
</g>
<!-- \\Site\\Controller\\UserSelect -->
<g id="node4" class="node"><title>\\Site\\Controller\\UserSelect</title>
<polygon fill="none" stroke="black" points="516.773,-1834 432.773,-1834 432.773,-1798 516.773,-1798 516.773,-1834"/>
<text text-anchor="middle" x="474.773" y="-1813.2" font-family="Courier,monospace" font-size="11.00">UserSelect</text>
</g>
<!-- \\Site\\Controller\\UserSelect&#45;&gt;\\Site\\Controller\\AbstractController -->
<g id="edge5" class="edge"><title>\\Site\\Controller\\UserSelect&#45;&gt;\\Site\\Controller\\AbstractController</title>
<path fill="none" stroke="black" d="M432.736,-1808.47C411.488,-1803.96 385.339,-1797.45 362.773,-1789 300.689,-1765.75 233.351,-1728.43 192.512,-1704.32"/>
<polygon fill="none" stroke="black" points="194.099,-1701.19 183.715,-1699.08 190.52,-1707.2 194.099,-1701.19"/>
</g>
<!-- \\Site\\Controller\\Home -->
<g id="node5" class="node"><title>\\Site\\Controller\\Home</title>
<polygon fill="none" stroke="black" points="501.773,-1780 447.773,-1780 447.773,-1744 501.773,-1744 501.773,-1780"/>
<text text-anchor="middle" x="474.773" y="-1759.2" font-family="Courier,monospace" font-size="11.00">Home</text>
</g>
<!-- \\Site\\Controller\\Home&#45;&gt;\\Site\\Controller\\AbstractController -->
<g id="edge9" class="edge"><title>\\Site\\Controller\\Home&#45;&gt;\\Site\\Controller\\AbstractController</title>
<path fill="none" stroke="black" d="M447.729,-1755.78C425.218,-1750.38 391.818,-1742.3 362.773,-1735 319.667,-1724.17 271.641,-1711.75 232.568,-1701.55"/>
<polygon fill="none" stroke="black" points="233.395,-1698.15 222.835,-1699.01 231.626,-1704.93 233.395,-1698.15"/>
</g>
<!-- \\Site\\Controller\\Message -->
<g id="node6" class="node"><title>\\Site\\Controller\\Message</title>
<polygon fill="none" stroke="black" points="506.773,-1726 442.773,-1726 442.773,-1690 506.773,-1690 506.773,-1726"/>
<text text-anchor="middle" x="474.773" y="-1705.2" font-family="Courier,monospace" font-size="11.00">Message</text>
</g>
<!-- \\Site\\Controller\\Message&#45;&gt;\\Site\\Controller\\AbstractController -->
<g id="edge11" class="edge"><title>\\Site\\Controller\\Message&#45;&gt;\\Site\\Controller\\AbstractController</title>
<path fill="none" stroke="black" d="M442.567,-1705.36C394.343,-1701.29 300.229,-1693.33 232.662,-1687.62"/>
<polygon fill="none" stroke="black" points="232.735,-1684.11 222.476,-1686.76 232.145,-1691.09 232.735,-1684.11"/>
</g>
<!-- \\Site\\Controller\\AllMessages -->
<g id="node7" class="node"><title>\\Site\\Controller\\AllMessages</title>
<polygon fill="none" stroke="black" points="520.273,-1672 429.273,-1672 429.273,-1636 520.273,-1636 520.273,-1672"/>
<text text-anchor="middle" x="474.773" y="-1651.2" font-family="Courier,monospace" font-size="11.00">AllMessages</text>
</g>
<!-- \\Site\\Controller\\AllMessages&#45;&gt;\\Site\\Controller\\AbstractController -->
<g id="edge12" class="edge"><title>\\Site\\Controller\\AllMessages&#45;&gt;\\Site\\Controller\\AbstractController</title>
<path fill="none" stroke="black" d="M429.027,-1657.78C378.207,-1662.08 294.346,-1669.17 232.638,-1674.38"/>
<polygon fill="none" stroke="black" points="232.218,-1670.91 222.548,-1675.24 232.807,-1677.88 232.218,-1670.91"/>
</g>
<!-- \\Site\\Controller\\Users -->
<g id="node9" class="node"><title>\\Site\\Controller\\Users</title>
<polygon fill="none" stroke="black" points="501.773,-1618 447.773,-1618 447.773,-1582 501.773,-1582 501.773,-1618"/>
<text text-anchor="middle" x="474.773" y="-1597.2" font-family="Courier,monospace" font-size="11.00">Users</text>
</g>
<!-- \\Site\\Controller\\Users&#45;&gt;\\Site\\Controller\\AbstractController -->
<g id="edge15" class="edge"><title>\\Site\\Controller\\Users&#45;&gt;\\Site\\Controller\\AbstractController</title>
<path fill="none" stroke="black" d="M447.729,-1606.22C425.218,-1611.62 391.818,-1619.7 362.773,-1627 319.667,-1637.83 271.641,-1650.25 232.568,-1660.45"/>
<polygon fill="none" stroke="black" points="231.626,-1657.07 222.835,-1662.99 233.395,-1663.85 231.626,-1657.07"/>
</g>
<!-- \\Site\\Controller\\User -->
<g id="node10" class="node"><title>\\Site\\Controller\\User</title>
<polygon fill="none" stroke="black" points="501.773,-1564 447.773,-1564 447.773,-1528 501.773,-1528 501.773,-1564"/>
<text text-anchor="middle" x="474.773" y="-1543.2" font-family="Courier,monospace" font-size="11.00">User</text>
</g>
<!-- \\Site\\Controller\\User&#45;&gt;\\Site\\Controller\\AbstractController -->
<g id="edge17" class="edge"><title>\\Site\\Controller\\User&#45;&gt;\\Site\\Controller\\AbstractController</title>
<path fill="none" stroke="black" d="M447.677,-1550.51C424.842,-1554.89 391.003,-1562.43 362.773,-1573 300.689,-1596.25 233.351,-1633.57 192.512,-1657.68"/>
<polygon fill="none" stroke="black" points="190.52,-1654.8 183.715,-1662.92 194.099,-1660.81 190.52,-1654.8"/>
</g>
<!-- \\Site\\Controller\\Debats -->
<g id="node11" class="node"><title>\\Site\\Controller\\Debats</title>
<polygon fill="none" stroke="black" points="503.273,-1510 446.273,-1510 446.273,-1474 503.273,-1474 503.273,-1510"/>
<text text-anchor="middle" x="474.773" y="-1489.2" font-family="Courier,monospace" font-size="11.00">Debats</text>
</g>
<!-- \\Site\\Controller\\Debats&#45;&gt;\\Site\\Controller\\AbstractController -->
<g id="edge19" class="edge"><title>\\Site\\Controller\\Debats&#45;&gt;\\Site\\Controller\\AbstractController</title>
<path fill="none" stroke="black" d="M446.22,-1495.4C423.068,-1499.02 389.564,-1506.07 362.773,-1519 288.799,-1554.71 216.251,-1619.83 179.4,-1655.68"/>
<polygon fill="none" stroke="black" points="176.77,-1653.35 172.09,-1662.86 181.676,-1658.35 176.77,-1653.35"/>
</g>
<!-- \\Site\\Controller\\Debat -->
<g id="node12" class="node"><title>\\Site\\Controller\\Debat</title>
<polygon fill="none" stroke="black" points="501.773,-1456 447.773,-1456 447.773,-1420 501.773,-1420 501.773,-1456"/>
<text text-anchor="middle" x="474.773" y="-1435.2" font-family="Courier,monospace" font-size="11.00">Debat</text>
</g>
<!-- \\Site\\Controller\\Debat&#45;&gt;\\Site\\Controller\\AbstractController -->
<g id="edge21" class="edge"><title>\\Site\\Controller\\Debat&#45;&gt;\\Site\\Controller\\AbstractController</title>
<path fill="none" stroke="black" d="M447.567,-1440.2C424.051,-1443.12 389.263,-1449.8 362.773,-1465 277.221,-1514.09 204.248,-1608.69 172.031,-1654.65"/>
<polygon fill="none" stroke="black" points="169.13,-1652.69 166.317,-1662.9 174.886,-1656.67 169.13,-1652.69"/>
</g>
<!-- \\Site\\Twig\\TokenParser\\TokenParser_Trans -->
<g id="node13" class="node"><title>\\Site\\Twig\\TokenParser\\TokenParser_Trans</title>
<polygon fill="none" stroke="black" points="540.273,-1232 409.273,-1232 409.273,-1196 540.273,-1196 540.273,-1232"/>
<text text-anchor="middle" x="474.773" y="-1211.2" font-family="Courier,monospace" font-size="11.00">TokenParser_Trans</text>
</g>
<!-- \\Twig_Extensions_TokenParser_Trans -->
<g id="node29" class="node"><title>\\Twig_Extensions_TokenParser_Trans</title>
<ellipse fill="none" stroke="black" cx="153.386" cy="-180" rx="153.273" ry="18"/>
<text text-anchor="middle" x="153.386" y="-176.3" font-family="Times New Roman,serif" font-size="14.00" fill="gray">\Twig_Extensions_TokenParser_Trans</text>
</g>
<!-- \\Site\\Twig\\TokenParser\\TokenParser_Trans&#45;&gt;\\Twig_Extensions_TokenParser_Trans -->
<g id="edge3" class="edge"><title>\\Site\\Twig\\TokenParser\\TokenParser_Trans&#45;&gt;\\Twig_Extensions_TokenParser_Trans</title>
<path fill="none" stroke="black" d="M409.15,-1210.25C391.56,-1205.97 374.224,-1198.1 362.773,-1184 225.685,-1015.18 451.202,-369.58 306.773,-207 302.657,-202.368 298.047,-198.351 293.064,-194.876"/>
<polygon fill="none" stroke="black" points="294.701,-191.774 284.347,-189.527 291.04,-197.74 294.701,-191.774"/>
</g>
<!-- \\Site\\Twig\\Filter\\FormatString -->
<g id="node14" class="node"><title>\\Site\\Twig\\Filter\\FormatString</title>
<polygon fill="none" stroke="black" points="523.773,-1152 425.773,-1152 425.773,-1116 523.773,-1116 523.773,-1152"/>
<text text-anchor="middle" x="474.773" y="-1131.2" font-family="Courier,monospace" font-size="11.00">FormatString</text>
</g>
<!-- \\Twig_Extension -->
<g id="node30" class="node"><title>\\Twig_Extension</title>
<ellipse fill="none" stroke="black" cx="153.386" cy="-126" rx="72.2875" ry="18"/>
<text text-anchor="middle" x="153.386" y="-122.3" font-family="Times New Roman,serif" font-size="14.00" fill="gray">\Twig_Extension</text>
</g>
<!-- \\Site\\Twig\\Filter\\FormatString&#45;&gt;\\Twig_Extension -->
<g id="edge4" class="edge"><title>\\Site\\Twig\\Filter\\FormatString&#45;&gt;\\Twig_Extension</title>
<path fill="none" stroke="black" d="M425.591,-1133.29C403.011,-1130.27 377.825,-1122.51 362.773,-1104 229.193,-939.765 447.495,-311.158 306.773,-153 288.242,-132.173 259.699,-123.793 232.305,-121.192"/>
<polygon fill="none" stroke="black" points="232.507,-117.698 222.285,-120.483 232.013,-124.68 232.507,-117.698"/>
</g>
<!-- \\Site\\Twig\\Extension\\Session -->
<g id="node15" class="node"><title>\\Site\\Twig\\Extension\\Session</title>
<polygon fill="none" stroke="black" points="506.773,-1072 442.773,-1072 442.773,-1036 506.773,-1036 506.773,-1072"/>
<text text-anchor="middle" x="474.773" y="-1051.2" font-family="Courier,monospace" font-size="11.00">Session</text>
</g>
<!-- \\Site\\Twig\\Extension\\Session&#45;&gt;\\Twig_Extension -->
<g id="edge6" class="edge"><title>\\Site\\Twig\\Extension\\Session&#45;&gt;\\Twig_Extension</title>
<path fill="none" stroke="black" d="M442.531,-1055.67C416.949,-1055.18 381.958,-1049.87 362.773,-1027 237.68,-877.906 436.517,-298.064 306.773,-153 288.188,-132.221 259.636,-123.85 232.248,-121.243"/>
<polygon fill="none" stroke="black" points="232.454,-117.749 222.231,-120.531 231.958,-124.731 232.454,-117.749"/>
</g>
<!-- \\Site\\Twig\\Extension\\I18n -->
<g id="node16" class="node"><title>\\Site\\Twig\\Extension\\I18n</title>
<polygon fill="none" stroke="black" points="501.773,-1018 447.773,-1018 447.773,-982 501.773,-982 501.773,-1018"/>
<text text-anchor="middle" x="474.773" y="-997.2" font-family="Courier,monospace" font-size="11.00">I18n</text>
</g>
<!-- \\Site\\Twig\\Extension\\I18n&#45;&gt;\\Twig_Extension -->
<g id="edge8" class="edge"><title>\\Site\\Twig\\Extension\\I18n&#45;&gt;\\Twig_Extension</title>
<path fill="none" stroke="black" d="M447.76,-1001.69C421.946,-1001.8 383.348,-997.418 362.773,-973 245.082,-833.326 428.821,-288.883 306.773,-153 288.144,-132.26 259.584,-123.897 232.202,-121.284"/>
<polygon fill="none" stroke="black" points="232.412,-117.791 222.188,-120.57 231.913,-124.773 232.412,-117.791"/>
</g>
<!-- \\Site\\Twig\\Extension\\OnloadMessage -->
<g id="node17" class="node"><title>\\Site\\Twig\\Extension\\OnloadMessage</title>
<polygon fill="none" stroke="black" points="526.773,-964 422.773,-964 422.773,-928 526.773,-928 526.773,-964"/>
<text text-anchor="middle" x="474.773" y="-943.2" font-family="Courier,monospace" font-size="11.00">OnloadMessage</text>
</g>
<!-- \\Site\\Twig\\Extension\\OnloadMessage&#45;&gt;\\Twig_Extension -->
<g id="edge14" class="edge"><title>\\Site\\Twig\\Extension\\OnloadMessage&#45;&gt;\\Twig_Extension</title>
<path fill="none" stroke="black" d="M422.689,-946.221C400.992,-943.496 377.383,-936.255 362.773,-919 252.483,-788.744 421.126,-279.704 306.773,-153 288.175,-132.393 259.77,-124.022 232.502,-121.366"/>
<polygon fill="none" stroke="black" points="232.757,-117.875 222.527,-120.634 232.244,-124.856 232.757,-117.875"/>
</g>
<!-- \\Site\\Twig\\Extension\\PathOfController -->
<g id="node18" class="node"><title>\\Site\\Twig\\Extension\\PathOfController</title>
<polygon fill="none" stroke="black" points="537.273,-910 412.273,-910 412.273,-874 537.273,-874 537.273,-910"/>
<text text-anchor="middle" x="474.773" y="-889.2" font-family="Courier,monospace" font-size="11.00">PathOfController</text>
</g>
<!-- \\Site\\Twig\\Extension\\PathOfController&#45;&gt;\\Twig_Extension -->
<g id="edge16" class="edge"><title>\\Site\\Twig\\Extension\\PathOfController&#45;&gt;\\Twig_Extension</title>
<path fill="none" stroke="black" d="M412.238,-888.772C393.682,-884.651 375.013,-876.745 362.773,-862 261.826,-740.392 413.006,-270.018 306.773,-153 288.197,-132.538 259.947,-124.16 232.796,-121.459"/>
<polygon fill="none" stroke="black" points="232.7,-117.942 222.467,-120.689 232.179,-124.923 232.7,-117.942"/>
</g>
<!-- \\Site\\Twig\\Node\\Node_Trans -->
<g id="node19" class="node"><title>\\Site\\Twig\\Node\\Node_Trans</title>
<polygon fill="none" stroke="black" points="516.773,-830 432.773,-830 432.773,-794 516.773,-794 516.773,-830"/>
<text text-anchor="middle" x="474.773" y="-809.2" font-family="Courier,monospace" font-size="11.00">Node_Trans</text>
</g>
<!-- \\Twig_Extensions_Node_Trans -->
<g id="node31" class="node"><title>\\Twig_Extensions_Node_Trans</title>
<ellipse fill="none" stroke="black" cx="153.386" cy="-72" rx="126.978" ry="18"/>
<text text-anchor="middle" x="153.386" y="-68.3" font-family="Times New Roman,serif" font-size="14.00" fill="gray">\Twig_Extensions_Node_Trans</text>
</g>
<!-- \\Site\\Twig\\Node\\Node_Trans&#45;&gt;\\Twig_Extensions_Node_Trans -->
<g id="edge7" class="edge"><title>\\Site\\Twig\\Node\\Node_Trans&#45;&gt;\\Twig_Extensions_Node_Trans</title>
<path fill="none" stroke="black" d="M432.504,-808.819C408.292,-804.65 379.297,-795.21 362.773,-774 270.268,-655.267 408.164,-210.242 306.773,-99 300.191,-91.7784 292.403,-86.0637 283.886,-81.5736"/>
<polygon fill="none" stroke="black" points="285.309,-78.3752 274.766,-77.3257 282.353,-84.7207 285.309,-78.3752"/>
</g>
<!-- \\Site\\Service\\Route -->
<g id="node20" class="node"><title>\\Site\\Service\\Route</title>
<polygon fill="none" stroke="black" points="501.773,-742 447.773,-742 447.773,-706 501.773,-706 501.773,-742"/>
<text text-anchor="middle" x="474.773" y="-721.2" font-family="Courier,monospace" font-size="11.00">Route</text>
</g>
<!-- \\Site\\Service\\Config -->
<g id="node21" class="node"><title>\\Site\\Service\\Config</title>
<polygon fill="none" stroke="black" points="503.273,-688 446.273,-688 446.273,-652 503.273,-652 503.273,-688"/>
<text text-anchor="middle" x="474.773" y="-667.2" font-family="Courier,monospace" font-size="11.00">Config</text>
</g>
<!-- \\Site\\Service\\Session -->
<g id="node22" class="node"><title>\\Site\\Service\\Session</title>
<polygon fill="none" stroke="black" points="506.773,-634 442.773,-634 442.773,-598 506.773,-598 506.773,-634"/>
<text text-anchor="middle" x="474.773" y="-613.2" font-family="Courier,monospace" font-size="11.00">Session</text>
</g>
<!-- \\Site\\Model\\User -->
<g id="node23" class="node"><title>\\Site\\Model\\User</title>
<polygon fill="none" stroke="black" points="501.773,-474 447.773,-474 447.773,-438 501.773,-438 501.773,-474"/>
<text text-anchor="middle" x="474.773" y="-453.2" font-family="Courier,monospace" font-size="11.00">User</text>
</g>
<!-- \\Illuminate\\Database\\Eloquent\\Model -->
<g id="node32" class="node"><title>\\Illuminate\\Database\\Eloquent\\Model</title>
<ellipse fill="none" stroke="black" cx="153.386" cy="-18" rx="143.775" ry="18"/>
<text text-anchor="middle" x="153.386" y="-14.3" font-family="Times New Roman,serif" font-size="14.00" fill="gray">\Illuminate\Database\Eloquent\Model</text>
</g>
<!-- \\Site\\Model\\User&#45;&gt;\\Illuminate\\Database\\Eloquent\\Model -->
<g id="edge10" class="edge"><title>\\Site\\Model\\User&#45;&gt;\\Illuminate\\Database\\Eloquent\\Model</title>
<path fill="none" stroke="black" d="M447.664,-457.357C422.153,-457.146 384.134,-452.465 362.773,-429 246.668,-301.461 426.852,-168.805 306.773,-45 301.564,-39.6299 295.686,-35.1086 289.346,-31.3149"/>
<polygon fill="none" stroke="black" points="290.906,-28.1805 280.432,-26.5813 287.622,-34.3628 290.906,-28.1805"/>
</g>
<!-- \\Site\\Model\\Element -->
<g id="node24" class="node"><title>\\Site\\Model\\Element</title>
<polygon fill="none" stroke="black" points="506.773,-420 442.773,-420 442.773,-384 506.773,-384 506.773,-420"/>
<text text-anchor="middle" x="474.773" y="-399.2" font-family="Courier,monospace" font-size="11.00">Element</text>
</g>
<!-- \\Site\\Model\\Element&#45;&gt;\\Illuminate\\Database\\Eloquent\\Model -->
<g id="edge18" class="edge"><title>\\Site\\Model\\Element&#45;&gt;\\Illuminate\\Database\\Eloquent\\Model</title>
<path fill="none" stroke="black" d="M442.62,-403.132C417.446,-402.256 382.986,-396.692 362.773,-375 261.354,-266.166 411.582,-150.573 306.773,-45 301.437,-39.6254 295.429,-35.107 288.961,-31.3214"/>
<polygon fill="none" stroke="black" points="290.364,-28.106 279.876,-26.6019 287.137,-34.3179 290.364,-28.106"/>
</g>
<!-- \\Site\\Model\\Debat -->
<g id="node25" class="node"><title>\\Site\\Model\\Debat</title>
<polygon fill="none" stroke="black" points="501.773,-366 447.773,-366 447.773,-330 501.773,-330 501.773,-366"/>
<text text-anchor="middle" x="474.773" y="-345.2" font-family="Courier,monospace" font-size="11.00">Debat</text>
</g>
<!-- \\Site\\Model\\Debat&#45;&gt;\\Illuminate\\Database\\Eloquent\\Model -->
<g id="edge20" class="edge"><title>\\Site\\Model\\Debat&#45;&gt;\\Illuminate\\Database\\Eloquent\\Model</title>
<path fill="none" stroke="black" d="M447.559,-350.426C422.339,-351.216 384.872,-348.076 362.773,-326 272.679,-236.001 397.775,-134.08 306.773,-45 301.295,-39.6376 295.145,-35.1352 288.541,-31.3676"/>
<polygon fill="none" stroke="black" points="289.777,-28.0704 279.275,-26.6736 286.614,-34.3149 289.777,-28.0704"/>
</g>
<!-- \\Site\\Util\\AjaxResponse -->
<g id="node26" class="node"><title>\\Site\\Util\\AjaxResponse</title>
<polygon fill="none" stroke="black" points="523.773,-554 425.773,-554 425.773,-518 523.773,-518 523.773,-554"/>
<text text-anchor="middle" x="474.773" y="-533.2" font-family="Courier,monospace" font-size="11.00">AjaxResponse</text>
</g>
<!-- \\Site\\App -->
<g id="node27" class="node"><title>\\Site\\App</title>
<polygon fill="none" stroke="black" points="501.773,-312 447.773,-312 447.773,-276 501.773,-276 501.773,-312"/>
<text text-anchor="middle" x="474.773" y="-291.2" font-family="Courier,monospace" font-size="11.00">App</text>
</g>
</g>
</svg>
