<?xml version="1.0" encoding="UTF-8" standalone="no"?>
<!DOCTYPE svg PUBLIC "-//W3C//DTD SVG 1.1//EN"
 "http://www.w3.org/Graphics/SVG/1.1/DTD/svg11.dtd">
<!-- Generated by graphviz version 2.38.0 (20140413.2041)
 -->
<!-- Title: G Pages: 1 -->
<svg width="619pt" height="2178pt"
 viewBox="0.00 0.00 618.77 2178.00" xmlns="http://www.w3.org/2000/svg" xmlns:xlink="http://www.w3.org/1999/xlink">
<g id="graph0" class="graph" transform="scale(1 1) rotate(0) translate(4 2174)">
<title>G</title>
<polygon fill="white" stroke="none" points="-4,4 -4,-2174 614.773,-2174 614.773,4 -4,4"/>
<g id="clust1" class="cluster"><title>cluster_Global</title>
<path fill="none" stroke="gray" d="M72.3864,-260C72.3864,-260 590.773,-260 590.773,-260 596.773,-260 602.773,-266 602.773,-272 602.773,-272 602.773,-2150 602.773,-2150 602.773,-2156 596.773,-2162 590.773,-2162 590.773,-2162 72.3864,-2162 72.3864,-2162 66.3864,-2162 60.3864,-2156 60.3864,-2150 60.3864,-2150 60.3864,-272 60.3864,-272 60.3864,-266 66.3864,-260 72.3864,-260"/>
<text text-anchor="middle" x="331.58" y="-2149.2" font-family="Times New Roman,serif" font-size="11.00" fill="gray">Global</text>
</g>
<g id="clust2" class="cluster"><title>cluster_\Site</title>
<path fill="none" stroke="gray" d="M80.3864,-268C80.3864,-268 582.773,-268 582.773,-268 588.773,-268 594.773,-274 594.773,-280 594.773,-280 594.773,-2122 594.773,-2122 594.773,-2128 588.773,-2134 582.773,-2134 582.773,-2134 80.3864,-2134 80.3864,-2134 74.3864,-2134 68.3864,-2128 68.3864,-2122 68.3864,-2122 68.3864,-280 68.3864,-280 68.3864,-274 74.3864,-268 80.3864,-268"/>
<text text-anchor="middle" x="331.58" y="-2121.2" font-family="Times New Roman,serif" font-size="11.00" fill="gray">Site</text>
</g>
<g id="clust3" class="cluster"><title>cluster_\Site\TwigExtension</title>
<path fill="none" stroke="gray" d="M374.773,-1350C374.773,-1350 574.773,-1350 574.773,-1350 580.773,-1350 586.773,-1356 586.773,-1362 586.773,-1362 586.773,-1446 586.773,-1446 586.773,-1452 580.773,-1458 574.773,-1458 574.773,-1458 374.773,-1458 374.773,-1458 368.773,-1458 362.773,-1452 362.773,-1446 362.773,-1446 362.773,-1362 362.773,-1362 362.773,-1356 368.773,-1350 374.773,-1350"/>
<text text-anchor="middle" x="474.773" y="-1445.2" font-family="Times New Roman,serif" font-size="11.00" fill="gray">TwigExtension</text>
</g>
<g id="clust4" class="cluster"><title>cluster_\Site\TwigExtension\Node</title>
<path fill="none" stroke="gray" d="M382.773,-1358C382.773,-1358 566.773,-1358 566.773,-1358 572.773,-1358 578.773,-1364 578.773,-1370 578.773,-1370 578.773,-1418 578.773,-1418 578.773,-1424 572.773,-1430 566.773,-1430 566.773,-1430 382.773,-1430 382.773,-1430 376.773,-1430 370.773,-1424 370.773,-1418 370.773,-1418 370.773,-1370 370.773,-1370 370.773,-1364 376.773,-1358 382.773,-1358"/>
<text text-anchor="middle" x="474.773" y="-1417.2" font-family="Times New Roman,serif" font-size="11.00" fill="gray">Node</text>
</g>
<g id="clust5" class="cluster"><title>cluster_\Site\Controller</title>
<path fill="none" stroke="gray" d="M88.3864,-1466C88.3864,-1466 516.273,-1466 516.273,-1466 522.273,-1466 528.273,-1472 528.273,-1478 528.273,-1478 528.273,-2094 528.273,-2094 528.273,-2100 522.273,-2106 516.273,-2106 516.273,-2106 88.3864,-2106 88.3864,-2106 82.3864,-2106 76.3864,-2100 76.3864,-2094 76.3864,-2094 76.3864,-1478 76.3864,-1478 76.3864,-1472 82.3864,-1466 88.3864,-1466"/>
<text text-anchor="middle" x="302.33" y="-2093.2" font-family="Times New Roman,serif" font-size="11.00" fill="gray">Controller</text>
</g>
<g id="clust6" class="cluster"><title>cluster_\Site\Controller\Test</title>
<path fill="none" stroke="gray" d="M451.773,-2006C451.773,-2006 497.773,-2006 497.773,-2006 503.773,-2006 509.773,-2012 509.773,-2018 509.773,-2018 509.773,-2066 509.773,-2066 509.773,-2072 503.773,-2078 497.773,-2078 497.773,-2078 451.773,-2078 451.773,-2078 445.773,-2078 439.773,-2072 439.773,-2066 439.773,-2066 439.773,-2018 439.773,-2018 439.773,-2012 445.773,-2006 451.773,-2006"/>
<text text-anchor="middle" x="474.773" y="-2065.2" font-family="Times New Roman,serif" font-size="11.00" fill="gray">Test</text>
</g>
<g id="clust7" class="cluster"><title>cluster_\Site\Twig</title>
<path fill="none" stroke="gray" d="M405.273,-778C405.273,-778 544.273,-778 544.273,-778 550.273,-778 556.273,-784 556.273,-790 556.273,-790 556.273,-1330 556.273,-1330 556.273,-1336 550.273,-1342 544.273,-1342 544.273,-1342 405.273,-1342 405.273,-1342 399.273,-1342 393.273,-1336 393.273,-1330 393.273,-1330 393.273,-790 393.273,-790 393.273,-784 399.273,-778 405.273,-778"/>
<text text-anchor="middle" x="474.773" y="-1329.2" font-family="Times New Roman,serif" font-size="11.00" fill="gray">Twig</text>
</g>
<g id="clust8" class="cluster"><title>cluster_\Site\Twig\TokenParser</title>
<path fill="none" stroke="gray" d="M413.273,-1242C413.273,-1242 536.273,-1242 536.273,-1242 542.273,-1242 548.273,-1248 548.273,-1254 548.273,-1254 548.273,-1302 548.273,-1302 548.273,-1308 542.273,-1314 536.273,-1314 536.273,-1314 413.273,-1314 413.273,-1314 407.273,-1314 401.273,-1308 401.273,-1302 401.273,-1302 401.273,-1254 401.273,-1254 401.273,-1248 407.273,-1242 413.273,-1242"/>
<text text-anchor="middle" x="474.773" y="-1301.2" font-family="Times New Roman,serif" font-size="11.00" fill="gray">TokenParser</text>
</g>
<g id="clust9" class="cluster"><title>cluster_\Site\Twig\Filter</title>
<path fill="none" stroke="gray" d="M429.773,-1162C429.773,-1162 519.773,-1162 519.773,-1162 525.773,-1162 531.773,-1168 531.773,-1174 531.773,-1174 531.773,-1222 531.773,-1222 531.773,-1228 525.773,-1234 519.773,-1234 519.773,-1234 429.773,-1234 429.773,-1234 423.773,-1234 417.773,-1228 417.773,-1222 417.773,-1222 417.773,-1174 417.773,-1174 417.773,-1168 423.773,-1162 429.773,-1162"/>
<text text-anchor="middle" x="474.773" y="-1221.2" font-family="Times New Roman,serif" font-size="11.00" fill="gray">Filter</text>
</g>
<g id="clust10" class="cluster"><title>cluster_\Site\Twig\Extension</title>
<path fill="none" stroke="gray" d="M416.273,-866C416.273,-866 533.273,-866 533.273,-866 539.273,-866 545.273,-872 545.273,-878 545.273,-878 545.273,-1142 545.273,-1142 545.273,-1148 539.273,-1154 533.273,-1154 533.273,-1154 416.273,-1154 416.273,-1154 410.273,-1154 404.273,-1148 404.273,-1142 404.273,-1142 404.273,-878 404.273,-878 404.273,-872 410.273,-866 416.273,-866"/>
<text text-anchor="middle" x="474.773" y="-1141.2" font-family="Times New Roman,serif" font-size="11.00" fill="gray">Extension</text>
</g>
<g id="clust11" class="cluster"><title>cluster_\Site\Twig\Node</title>
<path fill="none" stroke="gray" d="M436.773,-786C436.773,-786 512.773,-786 512.773,-786 518.773,-786 524.773,-792 524.773,-798 524.773,-798 524.773,-846 524.773,-846 524.773,-852 518.773,-858 512.773,-858 512.773,-858 436.773,-858 436.773,-858 430.773,-858 424.773,-852 424.773,-846 424.773,-846 424.773,-798 424.773,-798 424.773,-792 430.773,-786 436.773,-786"/>
<text text-anchor="middle" x="474.773" y="-845.2" font-family="Times New Roman,serif" font-size="11.00" fill="gray">Node</text>
</g>
<g id="clust12" class="cluster"><title>cluster_\Site\Service</title>
<path fill="none" stroke="gray" d="M446.773,-590C446.773,-590 502.773,-590 502.773,-590 508.773,-590 514.773,-596 514.773,-602 514.773,-602 514.773,-758 514.773,-758 514.773,-764 508.773,-770 502.773,-770 502.773,-770 446.773,-770 446.773,-770 440.773,-770 434.773,-764 434.773,-758 434.773,-758 434.773,-602 434.773,-602 434.773,-596 440.773,-590 446.773,-590"/>
<text text-anchor="middle" x="474.773" y="-757.2" font-family="Times New Roman,serif" font-size="11.00" fill="gray">Service</text>
</g>
<g id="clust13" class="cluster"><title>cluster_\Site\Model</title>
<path fill="none" stroke="gray" d="M446.773,-402C446.773,-402 502.773,-402 502.773,-402 508.773,-402 514.773,-408 514.773,-414 514.773,-414 514.773,-570 514.773,-570 514.773,-576 508.773,-582 502.773,-582 502.773,-582 446.773,-582 446.773,-582 440.773,-582 434.773,-576 434.773,-570 434.773,-570 434.773,-414 434.773,-414 434.773,-408 440.773,-402 446.773,-402"/>
<text text-anchor="middle" x="474.773" y="-569.2" font-family="Times New Roman,serif" font-size="11.00" fill="gray">Model</text>
</g>
<g id="clust14" class="cluster"><title>cluster_\Site\Util</title>
<path fill="none" stroke="gray" d="M429.773,-322C429.773,-322 519.773,-322 519.773,-322 525.773,-322 531.773,-328 531.773,-334 531.773,-334 531.773,-382 531.773,-382 531.773,-388 525.773,-394 519.773,-394 519.773,-394 429.773,-394 429.773,-394 423.773,-394 417.773,-388 417.773,-382 417.773,-382 417.773,-334 417.773,-334 417.773,-328 423.773,-322 429.773,-322"/>
<text text-anchor="middle" x="474.773" y="-381.2" font-family="Times New Roman,serif" font-size="11.00" fill="gray">Util</text>
</g>
<!-- \\Site\\TwigExtension\\Node\\Twig_Extensions_Node_Trans -->
<g id="node1" class="node"><title>\\Site\\TwigExtension\\Node\\Twig_Extensions_Node_Trans</title>
<polygon fill="none" stroke="black" points="570.773,-1402 378.773,-1402 378.773,-1366 570.773,-1366 570.773,-1402"/>
<text text-anchor="middle" x="474.773" y="-1381.2" font-family="Courier,monospace" font-size="11.00">Twig_Extensions_Node_Trans</text>
</g>
<!-- \\Twig_Node -->
<g id="node30" class="node"><title>\\Twig_Node</title>
<ellipse fill="none" stroke="black" cx="153.386" cy="-234" rx="56.59" ry="18"/>
<text text-anchor="middle" x="153.386" y="-230.3" font-family="Times New Roman,serif" font-size="14.00" fill="gray">\Twig_Node</text>
</g>
<!-- \\Site\\TwigExtension\\Node\\Twig_Extensions_Node_Trans&#45;&gt;\\Twig_Node -->
<g id="edge1" class="edge"><title>\\Site\\TwigExtension\\Node\\Twig_Extensions_Node_Trans&#45;&gt;\\Twig_Node</title>
<path fill="none" stroke="black" d="M424.751,-1365.88C402.536,-1355.23 377.91,-1339.56 362.773,-1318 236.943,-1138.78 169.704,-415.687 156.723,-262.573"/>
<polygon fill="none" stroke="black" points="160.174,-261.839 155.85,-252.166 153.198,-262.424 160.174,-261.839"/>
</g>
<!-- \\Site\\Controller\\Test\\Test -->
<g id="node2" class="node"><title>\\Site\\Controller\\Test\\Test</title>
<polygon fill="none" stroke="black" points="501.773,-2050 447.773,-2050 447.773,-2014 501.773,-2014 501.773,-2050"/>
<text text-anchor="middle" x="474.773" y="-2029.2" font-family="Courier,monospace" font-size="11.00">Test</text>
</g>
<!-- \\Site\\Controller\\AbstractController -->
<g id="node8" class="node"><title>\\Site\\Controller\\AbstractController</title>
<polygon fill="none" stroke="black" points="222.386,-1780 84.3864,-1780 84.3864,-1744 222.386,-1744 222.386,-1780"/>
<text text-anchor="start" x="119.386" y="-1765.2" font-family="Courier,monospace" font-size="11.00">«abstract»</text>
<text text-anchor="start" x="92.3864" y="-1753.2" font-family="Courier,monospace" font-size="11.00">AbstractController</text>
</g>
<!-- \\Site\\Controller\\Test\\Test&#45;&gt;\\Site\\Controller\\AbstractController -->
<g id="edge13" class="edge"><title>\\Site\\Controller\\Test\\Test&#45;&gt;\\Site\\Controller\\AbstractController</title>
<path fill="none" stroke="black" d="M447.355,-2031.64C423.696,-2030.23 388.818,-2025.39 362.773,-2010 269.113,-1954.64 198.005,-1841.32 168.851,-1789.26"/>
<polygon fill="none" stroke="black" points="171.793,-1787.35 163.9,-1780.28 165.663,-1790.73 171.793,-1787.35"/>
</g>
<!-- \\Site\\Controller\\UserSave -->
<g id="node3" class="node"><title>\\Site\\Controller\\UserSave</title>
<polygon fill="none" stroke="black" points="510.273,-1996 439.273,-1996 439.273,-1960 510.273,-1960 510.273,-1996"/>
<text text-anchor="middle" x="474.773" y="-1975.2" font-family="Courier,monospace" font-size="11.00">UserSave</text>
</g>
<!-- \\Site\\Controller\\UserSave&#45;&gt;\\Site\\Controller\\AbstractController -->
<g id="edge2" class="edge"><title>\\Site\\Controller\\UserSave&#45;&gt;\\Site\\Controller\\AbstractController</title>
<path fill="none" stroke="black" d="M439.177,-1974.09C416.439,-1970.47 386.602,-1963.64 362.773,-1951 283.046,-1908.72 209.85,-1829.01 175.29,-1787.93"/>
<polygon fill="none" stroke="black" points="177.793,-1785.47 168.708,-1780.02 172.411,-1789.94 177.793,-1785.47"/>
</g>
<!-- \\Site\\Controller\\UserSelect -->
<g id="node4" class="node"><title>\\Site\\Controller\\UserSelect</title>
<polygon fill="none" stroke="black" points="516.773,-1942 432.773,-1942 432.773,-1906 516.773,-1906 516.773,-1942"/>
<text text-anchor="middle" x="474.773" y="-1921.2" font-family="Courier,monospace" font-size="11.00">UserSelect</text>
</g>
<!-- \\Site\\Controller\\UserSelect&#45;&gt;\\Site\\Controller\\AbstractController -->
<g id="edge5" class="edge"><title>\\Site\\Controller\\UserSelect&#45;&gt;\\Site\\Controller\\AbstractController</title>
<path fill="none" stroke="black" d="M432.639,-1917.42C411.246,-1913.15 384.995,-1906.57 362.773,-1897 294.681,-1867.67 224.023,-1816.81 184.982,-1786.6"/>
<polygon fill="none" stroke="black" points="186.717,-1783.51 176.681,-1780.11 182.407,-1789.03 186.717,-1783.51"/>
</g>
<!-- \\Site\\Controller\\Home -->
<g id="node5" class="node"><title>\\Site\\Controller\\Home</title>
<polygon fill="none" stroke="black" points="501.773,-1888 447.773,-1888 447.773,-1852 501.773,-1852 501.773,-1888"/>
<text text-anchor="middle" x="474.773" y="-1867.2" font-family="Courier,monospace" font-size="11.00">Home</text>
</g>
<!-- \\Site\\Controller\\Home&#45;&gt;\\Site\\Controller\\AbstractController -->
<g id="edge9" class="edge"><title>\\Site\\Controller\\Home&#45;&gt;\\Site\\Controller\\AbstractController</title>
<path fill="none" stroke="black" d="M447.489,-1864.63C424.826,-1859.76 391.341,-1851.98 362.773,-1843 308.154,-1825.82 247.291,-1801.55 205.514,-1784.06"/>
<polygon fill="none" stroke="black" points="206.685,-1780.75 196.111,-1780.1 203.97,-1787.21 206.685,-1780.75"/>
</g>
<!-- \\Site\\Controller\\Message -->
<g id="node6" class="node"><title>\\Site\\Controller\\Message</title>
<polygon fill="none" stroke="black" points="506.773,-1834 442.773,-1834 442.773,-1798 506.773,-1798 506.773,-1834"/>
<text text-anchor="middle" x="474.773" y="-1813.2" font-family="Courier,monospace" font-size="11.00">Message</text>
</g>
<!-- \\Site\\Controller\\Message&#45;&gt;\\Site\\Controller\\AbstractController -->
<g id="edge11" class="edge"><title>\\Site\\Controller\\Message&#45;&gt;\\Site\\Controller\\AbstractController</title>
<path fill="none" stroke="black" d="M442.567,-1810.72C394.343,-1802.57 300.229,-1786.66 232.662,-1775.23"/>
<polygon fill="none" stroke="black" points="232.919,-1771.73 222.476,-1773.51 231.752,-1778.63 232.919,-1771.73"/>
</g>
<!-- \\Site\\Controller\\AllMessages -->
<g id="node7" class="node"><title>\\Site\\Controller\\AllMessages</title>
<polygon fill="none" stroke="black" points="520.273,-1780 429.273,-1780 429.273,-1744 520.273,-1744 520.273,-1780"/>
<text text-anchor="middle" x="474.773" y="-1759.2" font-family="Courier,monospace" font-size="11.00">AllMessages</text>
</g>
<!-- \\Site\\Controller\\AllMessages&#45;&gt;\\Site\\Controller\\AbstractController -->
<g id="edge12" class="edge"><title>\\Site\\Controller\\AllMessages&#45;&gt;\\Site\\Controller\\AbstractController</title>
<path fill="none" stroke="black" d="M429.027,-1762C378.207,-1762 294.346,-1762 232.638,-1762"/>
<polygon fill="none" stroke="black" points="232.548,-1758.5 222.548,-1762 232.548,-1765.5 232.548,-1758.5"/>
</g>
<!-- \\Site\\Controller\\Users -->
<g id="node9" class="node"><title>\\Site\\Controller\\Users</title>
<polygon fill="none" stroke="black" points="501.773,-1726 447.773,-1726 447.773,-1690 501.773,-1690 501.773,-1726"/>
<text text-anchor="middle" x="474.773" y="-1705.2" font-family="Courier,monospace" font-size="11.00">Users</text>
</g>
<!-- \\Site\\Controller\\Users&#45;&gt;\\Site\\Controller\\AbstractController -->
<g id="edge15" class="edge"><title>\\Site\\Controller\\Users&#45;&gt;\\Site\\Controller\\AbstractController</title>
<path fill="none" stroke="black" d="M447.636,-1712.42C401.203,-1720.27 302.635,-1736.94 232.61,-1748.77"/>
<polygon fill="none" stroke="black" points="231.772,-1745.37 222.496,-1750.48 232.939,-1752.27 231.772,-1745.37"/>
</g>
<!-- \\Site\\Controller\\User -->
<g id="node10" class="node"><title>\\Site\\Controller\\User</title>
<polygon fill="none" stroke="black" points="501.773,-1672 447.773,-1672 447.773,-1636 501.773,-1636 501.773,-1672"/>
<text text-anchor="middle" x="474.773" y="-1651.2" font-family="Courier,monospace" font-size="11.00">User</text>
</g>
<!-- \\Site\\Controller\\User&#45;&gt;\\Site\\Controller\\AbstractController -->
<g id="edge17" class="edge"><title>\\Site\\Controller\\User&#45;&gt;\\Site\\Controller\\AbstractController</title>
<path fill="none" stroke="black" d="M447.489,-1659.37C424.826,-1664.24 391.341,-1672.02 362.773,-1681 308.154,-1698.18 247.291,-1722.45 205.514,-1739.94"/>
<polygon fill="none" stroke="black" points="203.97,-1736.79 196.111,-1743.9 206.685,-1743.25 203.97,-1736.79"/>
</g>
<!-- \\Site\\Controller\\Debats -->
<g id="node11" class="node"><title>\\Site\\Controller\\Debats</title>
<polygon fill="none" stroke="black" points="503.273,-1618 446.273,-1618 446.273,-1582 503.273,-1582 503.273,-1618"/>
<text text-anchor="middle" x="474.773" y="-1597.2" font-family="Courier,monospace" font-size="11.00">Debats</text>
</g>
<!-- \\Site\\Controller\\Debats&#45;&gt;\\Site\\Controller\\AbstractController -->
<g id="edge19" class="edge"><title>\\Site\\Controller\\Debats&#45;&gt;\\Site\\Controller\\AbstractController</title>
<path fill="none" stroke="black" d="M446.032,-1604.08C423.063,-1608.08 389.913,-1615.31 362.773,-1627 294.681,-1656.33 224.023,-1707.19 184.982,-1737.4"/>
<polygon fill="none" stroke="black" points="182.407,-1734.97 176.681,-1743.89 186.717,-1740.49 182.407,-1734.97"/>
</g>
<!-- \\Site\\Controller\\Debat -->
<g id="node12" class="node"><title>\\Site\\Controller\\Debat</title>
<polygon fill="none" stroke="black" points="501.773,-1564 447.773,-1564 447.773,-1528 501.773,-1528 501.773,-1564"/>
<text text-anchor="middle" x="474.773" y="-1543.2" font-family="Courier,monospace" font-size="11.00">Debat</text>
</g>
<!-- \\Site\\Controller\\Debat&#45;&gt;\\Site\\Controller\\AbstractController -->
<g id="edge21" class="edge"><title>\\Site\\Controller\\Debat&#45;&gt;\\Site\\Controller\\AbstractController</title>
<path fill="none" stroke="black" d="M447.345,-1548.69C423.993,-1551.92 389.58,-1558.78 362.773,-1573 283.046,-1615.28 209.85,-1694.99 175.29,-1736.07"/>
<polygon fill="none" stroke="black" points="172.411,-1734.06 168.708,-1743.98 177.793,-1738.53 172.411,-1734.06"/>
</g>
<!-- \\Site\\Controller\\DebatSave -->
<g id="node13" class="node"><title>\\Site\\Controller\\DebatSave</title>
<polygon fill="none" stroke="black" points="513.273,-1510 436.273,-1510 436.273,-1474 513.273,-1474 513.273,-1510"/>
<text text-anchor="middle" x="474.773" y="-1489.2" font-family="Courier,monospace" font-size="11.00">DebatSave</text>
</g>
<!-- \\Site\\Controller\\DebatSave&#45;&gt;\\Site\\Controller\\AbstractController -->
<g id="edge22" class="edge"><title>\\Site\\Controller\\DebatSave&#45;&gt;\\Site\\Controller\\AbstractController</title>
<path fill="none" stroke="black" d="M436.063,-1495.31C413.465,-1498.66 384.918,-1505.41 362.773,-1519 271.574,-1574.95 199.692,-1684.17 169.65,-1734.9"/>
<polygon fill="none" stroke="black" points="166.551,-1733.27 164.532,-1743.67 172.597,-1736.8 166.551,-1733.27"/>
</g>
<!-- \\Site\\Twig\\TokenParser\\TokenParser_Trans -->
<g id="node14" class="node"><title>\\Site\\Twig\\TokenParser\\TokenParser_Trans</title>
<polygon fill="none" stroke="black" points="540.273,-1286 409.273,-1286 409.273,-1250 540.273,-1250 540.273,-1286"/>
<text text-anchor="middle" x="474.773" y="-1265.2" font-family="Courier,monospace" font-size="11.00">TokenParser_Trans</text>
</g>
<!-- \\Twig_Extensions_TokenParser_Trans -->
<g id="node31" class="node"><title>\\Twig_Extensions_TokenParser_Trans</title>
<ellipse fill="none" stroke="black" cx="153.386" cy="-180" rx="153.273" ry="18"/>
<text text-anchor="middle" x="153.386" y="-176.3" font-family="Times New Roman,serif" font-size="14.00" fill="gray">\Twig_Extensions_TokenParser_Trans</text>
</g>
<!-- \\Site\\Twig\\TokenParser\\TokenParser_Trans&#45;&gt;\\Twig_Extensions_TokenParser_Trans -->
<g id="edge3" class="edge"><title>\\Site\\Twig\\TokenParser\\TokenParser_Trans&#45;&gt;\\Twig_Extensions_TokenParser_Trans</title>
<path fill="none" stroke="black" d="M409.124,-1264.27C391.533,-1259.99 374.203,-1252.12 362.773,-1238 218.399,-1059.67 458.902,-378.765 306.773,-207 302.664,-202.361 298.06,-198.339 293.081,-194.861"/>
<polygon fill="none" stroke="black" points="294.723,-191.762 284.371,-189.506 291.057,-197.725 294.723,-191.762"/>
</g>
<!-- \\Site\\Twig\\Filter\\FormatString -->
<g id="node15" class="node"><title>\\Site\\Twig\\Filter\\FormatString</title>
<polygon fill="none" stroke="black" points="523.773,-1206 425.773,-1206 425.773,-1170 523.773,-1170 523.773,-1206"/>
<text text-anchor="middle" x="474.773" y="-1185.2" font-family="Courier,monospace" font-size="11.00">FormatString</text>
</g>
<!-- \\Twig_Extension -->
<g id="node32" class="node"><title>\\Twig_Extension</title>
<ellipse fill="none" stroke="black" cx="153.386" cy="-126" rx="72.2875" ry="18"/>
<text text-anchor="middle" x="153.386" y="-122.3" font-family="Times New Roman,serif" font-size="14.00" fill="gray">\Twig_Extension</text>
</g>
<!-- \\Site\\Twig\\Filter\\FormatString&#45;&gt;\\Twig_Extension -->
<g id="edge4" class="edge"><title>\\Site\\Twig\\Filter\\FormatString&#45;&gt;\\Twig_Extension</title>
<path fill="none" stroke="black" d="M425.566,-1187.31C402.98,-1184.3 377.796,-1176.53 362.773,-1158 221.908,-984.248 455.195,-320.343 306.773,-153 288.275,-132.144 259.739,-123.758 232.34,-121.161"/>
<polygon fill="none" stroke="black" points="232.54,-117.667 222.318,-120.454 232.047,-124.649 232.54,-117.667"/>
</g>
<!-- \\Site\\Twig\\Extension\\Session -->
<g id="node16" class="node"><title>\\Site\\Twig\\Extension\\Session</title>
<polygon fill="none" stroke="black" points="506.773,-1126 442.773,-1126 442.773,-1090 506.773,-1090 506.773,-1126"/>
<text text-anchor="middle" x="474.773" y="-1105.2" font-family="Courier,monospace" font-size="11.00">Session</text>
</g>
<!-- \\Site\\Twig\\Extension\\Session&#45;&gt;\\Twig_Extension -->
<g id="edge6" class="edge"><title>\\Site\\Twig\\Extension\\Session&#45;&gt;\\Twig_Extension</title>
<path fill="none" stroke="black" d="M442.764,-1109.7C417.146,-1109.24 381.979,-1103.98 362.773,-1081 230.276,-922.485 444.215,-307.246 306.773,-153 288.227,-132.186 259.681,-123.809 232.289,-121.206"/>
<polygon fill="none" stroke="black" points="232.492,-117.712 222.27,-120.496 231.998,-124.695 232.492,-117.712"/>
</g>
<!-- \\Site\\Twig\\Extension\\I18n -->
<g id="node17" class="node"><title>\\Site\\Twig\\Extension\\I18n</title>
<polygon fill="none" stroke="black" points="501.773,-1072 447.773,-1072 447.773,-1036 501.773,-1036 501.773,-1072"/>
<text text-anchor="middle" x="474.773" y="-1051.2" font-family="Courier,monospace" font-size="11.00">I18n</text>
</g>
<!-- \\Site\\Twig\\Extension\\I18n&#45;&gt;\\Twig_Extension -->
<g id="edge8" class="edge"><title>\\Site\\Twig\\Extension\\I18n&#45;&gt;\\Twig_Extension</title>
<path fill="none" stroke="black" d="M447.739,-1055.71C421.908,-1055.83 383.296,-1051.46 362.773,-1027 237.68,-877.906 436.517,-298.064 306.773,-153 288.188,-132.221 259.636,-123.85 232.248,-121.243"/>
<polygon fill="none" stroke="black" points="232.454,-117.749 222.231,-120.531 231.958,-124.731 232.454,-117.749"/>
</g>
<!-- \\Site\\Twig\\Extension\\OnloadMessage -->
<g id="node18" class="node"><title>\\Site\\Twig\\Extension\\OnloadMessage</title>
<polygon fill="none" stroke="black" points="526.773,-1018 422.773,-1018 422.773,-982 526.773,-982 526.773,-1018"/>
<text text-anchor="middle" x="474.773" y="-997.2" font-family="Courier,monospace" font-size="11.00">OnloadMessage</text>
</g>
<!-- \\Site\\Twig\\Extension\\OnloadMessage&#45;&gt;\\Twig_Extension -->
<g id="edge14" class="edge"><title>\\Site\\Twig\\Extension\\OnloadMessage&#45;&gt;\\Twig_Extension</title>
<path fill="none" stroke="black" d="M422.651,-1000.25C400.946,-997.535 377.341,-990.29 362.773,-973 245.082,-833.326 428.821,-288.883 306.773,-153 288.144,-132.26 259.584,-123.897 232.202,-121.284"/>
<polygon fill="none" stroke="black" points="232.412,-117.791 222.188,-120.57 231.913,-124.773 232.412,-117.791"/>
</g>
<!-- \\Site\\Twig\\Extension\\PathOfController -->
<g id="node19" class="node"><title>\\Site\\Twig\\Extension\\PathOfController</title>
<polygon fill="none" stroke="black" points="537.273,-964 412.273,-964 412.273,-928 537.273,-928 537.273,-964"/>
<text text-anchor="middle" x="474.773" y="-943.2" font-family="Courier,monospace" font-size="11.00">PathOfController</text>
</g>
<!-- \\Site\\Twig\\Extension\\PathOfController&#45;&gt;\\Twig_Extension -->
<g id="edge16" class="edge"><title>\\Site\\Twig\\Extension\\PathOfController&#45;&gt;\\Twig_Extension</title>
<path fill="none" stroke="black" d="M412.022,-944.514C393.567,-940.882 375.012,-933.455 362.773,-919 252.483,-788.744 421.126,-279.704 306.773,-153 288.175,-132.393 259.77,-124.022 232.502,-121.366"/>
<polygon fill="none" stroke="black" points="232.757,-117.875 222.527,-120.634 232.244,-124.856 232.757,-117.875"/>
</g>
<!-- \\Site\\Twig\\Extension\\Trans -->
<g id="node20" class="node"><title>\\Site\\Twig\\Extension\\Trans</title>
<polygon fill="none" stroke="black" points="501.773,-910 447.773,-910 447.773,-874 501.773,-874 501.773,-910"/>
<text text-anchor="middle" x="474.773" y="-889.2" font-family="Courier,monospace" font-size="11.00">Trans</text>
</g>
<!-- \\Site\\Twig\\Extension\\Trans&#45;&gt;\\Twig_Extension -->
<g id="edge23" class="edge"><title>\\Site\\Twig\\Extension\\Trans&#45;&gt;\\Twig_Extension</title>
<path fill="none" stroke="black" d="M447.741,-892.889C421.911,-892.219 383.301,-886.729 362.773,-862 261.826,-740.392 413.006,-270.018 306.773,-153 288.197,-132.538 259.947,-124.16 232.796,-121.459"/>
<polygon fill="none" stroke="black" points="232.7,-117.942 222.467,-120.689 232.179,-124.923 232.7,-117.942"/>
</g>
<!-- \\Site\\Twig\\Node\\Node_Trans -->
<g id="node21" class="node"><title>\\Site\\Twig\\Node\\Node_Trans</title>
<polygon fill="none" stroke="black" points="516.773,-830 432.773,-830 432.773,-794 516.773,-794 516.773,-830"/>
<text text-anchor="middle" x="474.773" y="-809.2" font-family="Courier,monospace" font-size="11.00">Node_Trans</text>
</g>
<!-- \\Twig_Extensions_Node_Trans -->
<g id="node33" class="node"><title>\\Twig_Extensions_Node_Trans</title>
<ellipse fill="none" stroke="black" cx="153.386" cy="-72" rx="126.978" ry="18"/>
<text text-anchor="middle" x="153.386" y="-68.3" font-family="Times New Roman,serif" font-size="14.00" fill="gray">\Twig_Extensions_Node_Trans</text>
</g>
<!-- \\Site\\Twig\\Node\\Node_Trans&#45;&gt;\\Twig_Extensions_Node_Trans -->
<g id="edge7" class="edge"><title>\\Site\\Twig\\Node\\Node_Trans&#45;&gt;\\Twig_Extensions_Node_Trans</title>
<path fill="none" stroke="black" d="M432.504,-808.819C408.292,-804.65 379.297,-795.21 362.773,-774 270.268,-655.267 408.164,-210.242 306.773,-99 300.191,-91.7784 292.403,-86.0637 283.886,-81.5736"/>
<polygon fill="none" stroke="black" points="285.309,-78.3752 274.766,-77.3257 282.353,-84.7207 285.309,-78.3752"/>
</g>
<!-- \\Site\\Service\\Route -->
<g id="node22" class="node"><title>\\Site\\Service\\Route</title>
<polygon fill="none" stroke="black" points="501.773,-742 447.773,-742 447.773,-706 501.773,-706 501.773,-742"/>
<text text-anchor="middle" x="474.773" y="-721.2" font-family="Courier,monospace" font-size="11.00">Route</text>
</g>
<!-- \\Site\\Service\\Config -->
<g id="node23" class="node"><title>\\Site\\Service\\Config</title>
<polygon fill="none" stroke="black" points="503.273,-688 446.273,-688 446.273,-652 503.273,-652 503.273,-688"/>
<text text-anchor="middle" x="474.773" y="-667.2" font-family="Courier,monospace" font-size="11.00">Config</text>
</g>
<!-- \\Site\\Service\\Session -->
<g id="node24" class="node"><title>\\Site\\Service\\Session</title>
<polygon fill="none" stroke="black" points="506.773,-634 442.773,-634 442.773,-598 506.773,-598 506.773,-634"/>
<text text-anchor="middle" x="474.773" y="-613.2" font-family="Courier,monospace" font-size="11.00">Session</text>
</g>
<!-- \\Site\\Model\\User -->
<g id="node25" class="node"><title>\\Site\\Model\\User</title>
<polygon fill="none" stroke="black" points="501.773,-554 447.773,-554 447.773,-518 501.773,-518 501.773,-554"/>
<text text-anchor="middle" x="474.773" y="-533.2" font-family="Courier,monospace" font-size="11.00">User</text>
</g>
<!-- \\Illuminate\\Database\\Eloquent\\Model -->
<g id="node34" class="node"><title>\\Illuminate\\Database\\Eloquent\\Model</title>
<ellipse fill="none" stroke="black" cx="153.386" cy="-18" rx="143.775" ry="18"/>
<text text-anchor="middle" x="153.386" y="-14.3" font-family="Times New Roman,serif" font-size="14.00" fill="gray">\Illuminate\Database\Eloquent\Model</text>
</g>
<!-- \\Site\\Model\\User&#45;&gt;\\Illuminate\\Database\\Eloquent\\Model -->
<g id="edge10" class="edge"><title>\\Site\\Model\\User&#45;&gt;\\Illuminate\\Database\\Eloquent\\Model</title>
<path fill="none" stroke="black" d="M447.541,-537.467C421.935,-537.343 383.843,-532.728 362.773,-509 224.849,-353.681 449.539,-195.88 306.773,-45 301.631,-39.566 295.805,-34.9946 289.505,-31.1625"/>
<polygon fill="none" stroke="black" points="291.102,-28.0475 280.638,-26.3836 287.78,-34.2094 291.102,-28.0475"/>
</g>
<!-- \\Site\\Model\\Element -->
<g id="node26" class="node"><title>\\Site\\Model\\Element</title>
<polygon fill="none" stroke="black" points="506.773,-500 442.773,-500 442.773,-464 506.773,-464 506.773,-500"/>
<text text-anchor="middle" x="474.773" y="-479.2" font-family="Courier,monospace" font-size="11.00">Element</text>
</g>
<!-- \\Site\\Model\\Element&#45;&gt;\\Illuminate\\Database\\Eloquent\\Model -->
<g id="edge18" class="edge"><title>\\Site\\Model\\Element&#45;&gt;\\Illuminate\\Database\\Eloquent\\Model</title>
<path fill="none" stroke="black" d="M442.69,-483.308C417.383,-482.563 382.699,-477.089 362.773,-455 239.583,-318.439 434.218,-177.597 306.773,-45 301.589,-39.6063 295.73,-35.0666 289.404,-31.2587"/>
<polygon fill="none" stroke="black" points="290.977,-28.1314 280.508,-26.5085 287.68,-34.3062 290.977,-28.1314"/>
</g>
<!-- \\Site\\Model\\Debat -->
<g id="node27" class="node"><title>\\Site\\Model\\Debat</title>
<polygon fill="none" stroke="black" points="501.773,-446 447.773,-446 447.773,-410 501.773,-410 501.773,-446"/>
<text text-anchor="middle" x="474.773" y="-425.2" font-family="Courier,monospace" font-size="11.00">Debat</text>
</g>
<!-- \\Site\\Model\\Debat&#45;&gt;\\Illuminate\\Database\\Eloquent\\Model -->
<g id="edge20" class="edge"><title>\\Site\\Model\\Debat&#45;&gt;\\Illuminate\\Database\\Eloquent\\Model</title>
<path fill="none" stroke="black" d="M447.658,-428.53C422.144,-427.536 384.122,-421.756 362.773,-398 256.594,-279.849 418.08,-158.333 306.773,-45 301.466,-39.5967 295.48,-35.056 289.03,-31.2533"/>
<polygon fill="none" stroke="black" points="290.449,-28.0458 279.965,-26.5138 287.205,-34.249 290.449,-28.0458"/>
</g>
<!-- \\Site\\Util\\AjaxResponse -->
<g id="node28" class="node"><title>\\Site\\Util\\AjaxResponse</title>
<polygon fill="none" stroke="black" points="523.773,-366 425.773,-366 425.773,-330 523.773,-330 523.773,-366"/>
<text text-anchor="middle" x="474.773" y="-345.2" font-family="Courier,monospace" font-size="11.00">AjaxResponse</text>
</g>
<!-- \\Site\\App -->
<g id="node29" class="node"><title>\\Site\\App</title>
<polygon fill="none" stroke="black" points="501.773,-312 447.773,-312 447.773,-276 501.773,-276 501.773,-312"/>
<text text-anchor="middle" x="474.773" y="-291.2" font-family="Courier,monospace" font-size="11.00">App</text>
</g>
</g>
</svg>
