<?xml version="1.0" encoding="UTF-8" standalone="no"?>
<!DOCTYPE svg PUBLIC "-//W3C//DTD SVG 1.1//EN"
 "http://www.w3.org/Graphics/SVG/1.1/DTD/svg11.dtd">
<!-- Generated by graphviz version 2.38.0 (20140413.2041)
 -->
<!-- Title: G Pages: 1 -->
<svg width="619pt" height="1988pt"
 viewBox="0.00 0.00 618.77 1988.00" xmlns="http://www.w3.org/2000/svg" xmlns:xlink="http://www.w3.org/1999/xlink">
<g id="graph0" class="graph" transform="scale(1 1) rotate(0) translate(4 1984)">
<title>G</title>
<polygon fill="white" stroke="none" points="-4,4 -4,-1984 614.773,-1984 614.773,4 -4,4"/>
<g id="clust1" class="cluster"><title>cluster_Global</title>
<path fill="none" stroke="gray" d="M95.8864,-260C95.8864,-260 590.773,-260 590.773,-260 596.773,-260 602.773,-266 602.773,-272 602.773,-272 602.773,-1960 602.773,-1960 602.773,-1966 596.773,-1972 590.773,-1972 590.773,-1972 95.8864,-1972 95.8864,-1972 89.8864,-1972 83.8864,-1966 83.8864,-1960 83.8864,-1960 83.8864,-272 83.8864,-272 83.8864,-266 89.8864,-260 95.8864,-260"/>
<text text-anchor="middle" x="343.33" y="-1959.2" font-family="Times New Roman,serif" font-size="11.00" fill="gray">Global</text>
</g>
<g id="clust2" class="cluster"><title>cluster_\Site</title>
<path fill="none" stroke="gray" d="M103.886,-268C103.886,-268 582.773,-268 582.773,-268 588.773,-268 594.773,-274 594.773,-280 594.773,-280 594.773,-1932 594.773,-1932 594.773,-1938 588.773,-1944 582.773,-1944 582.773,-1944 103.886,-1944 103.886,-1944 97.8864,-1944 91.8864,-1938 91.8864,-1932 91.8864,-1932 91.8864,-280 91.8864,-280 91.8864,-274 97.8864,-268 103.886,-268"/>
<text text-anchor="middle" x="343.33" y="-1931.2" font-family="Times New Roman,serif" font-size="11.00" fill="gray">Site</text>
</g>
<g id="clust3" class="cluster"><title>cluster_\Site\TwigExtension</title>
<path fill="none" stroke="gray" d="M374.773,-1296C374.773,-1296 574.773,-1296 574.773,-1296 580.773,-1296 586.773,-1302 586.773,-1308 586.773,-1308 586.773,-1392 586.773,-1392 586.773,-1398 580.773,-1404 574.773,-1404 574.773,-1404 374.773,-1404 374.773,-1404 368.773,-1404 362.773,-1398 362.773,-1392 362.773,-1392 362.773,-1308 362.773,-1308 362.773,-1302 368.773,-1296 374.773,-1296"/>
<text text-anchor="middle" x="474.773" y="-1391.2" font-family="Times New Roman,serif" font-size="11.00" fill="gray">TwigExtension</text>
</g>
<g id="clust4" class="cluster"><title>cluster_\Site\TwigExtension\Node</title>
<path fill="none" stroke="gray" d="M382.773,-1304C382.773,-1304 566.773,-1304 566.773,-1304 572.773,-1304 578.773,-1310 578.773,-1316 578.773,-1316 578.773,-1364 578.773,-1364 578.773,-1370 572.773,-1376 566.773,-1376 566.773,-1376 382.773,-1376 382.773,-1376 376.773,-1376 370.773,-1370 370.773,-1364 370.773,-1364 370.773,-1316 370.773,-1316 370.773,-1310 376.773,-1304 382.773,-1304"/>
<text text-anchor="middle" x="474.773" y="-1363.2" font-family="Times New Roman,serif" font-size="11.00" fill="gray">Node</text>
</g>
<g id="clust5" class="cluster"><title>cluster_\Site\Controller</title>
<path fill="none" stroke="gray" d="M111.886,-1412C111.886,-1412 516.273,-1412 516.273,-1412 522.273,-1412 528.273,-1418 528.273,-1424 528.273,-1424 528.273,-1904 528.273,-1904 528.273,-1910 522.273,-1916 516.273,-1916 516.273,-1916 111.886,-1916 111.886,-1916 105.886,-1916 99.8864,-1910 99.8864,-1904 99.8864,-1904 99.8864,-1424 99.8864,-1424 99.8864,-1418 105.886,-1412 111.886,-1412"/>
<text text-anchor="middle" x="314.08" y="-1903.2" font-family="Times New Roman,serif" font-size="11.00" fill="gray">Controller</text>
</g>
<g id="clust6" class="cluster"><title>cluster_\Site\Twig</title>
<path fill="none" stroke="gray" d="M405.273,-778C405.273,-778 544.273,-778 544.273,-778 550.273,-778 556.273,-784 556.273,-790 556.273,-790 556.273,-1276 556.273,-1276 556.273,-1282 550.273,-1288 544.273,-1288 544.273,-1288 405.273,-1288 405.273,-1288 399.273,-1288 393.273,-1282 393.273,-1276 393.273,-1276 393.273,-790 393.273,-790 393.273,-784 399.273,-778 405.273,-778"/>
<text text-anchor="middle" x="474.773" y="-1275.2" font-family="Times New Roman,serif" font-size="11.00" fill="gray">Twig</text>
</g>
<g id="clust7" class="cluster"><title>cluster_\Site\Twig\TokenParser</title>
<path fill="none" stroke="gray" d="M413.273,-1188C413.273,-1188 536.273,-1188 536.273,-1188 542.273,-1188 548.273,-1194 548.273,-1200 548.273,-1200 548.273,-1248 548.273,-1248 548.273,-1254 542.273,-1260 536.273,-1260 536.273,-1260 413.273,-1260 413.273,-1260 407.273,-1260 401.273,-1254 401.273,-1248 401.273,-1248 401.273,-1200 401.273,-1200 401.273,-1194 407.273,-1188 413.273,-1188"/>
<text text-anchor="middle" x="474.773" y="-1247.2" font-family="Times New Roman,serif" font-size="11.00" fill="gray">TokenParser</text>
</g>
<g id="clust8" class="cluster"><title>cluster_\Site\Twig\Filter</title>
<path fill="none" stroke="gray" d="M429.773,-1108C429.773,-1108 519.773,-1108 519.773,-1108 525.773,-1108 531.773,-1114 531.773,-1120 531.773,-1120 531.773,-1168 531.773,-1168 531.773,-1174 525.773,-1180 519.773,-1180 519.773,-1180 429.773,-1180 429.773,-1180 423.773,-1180 417.773,-1174 417.773,-1168 417.773,-1168 417.773,-1120 417.773,-1120 417.773,-1114 423.773,-1108 429.773,-1108"/>
<text text-anchor="middle" x="474.773" y="-1167.2" font-family="Times New Roman,serif" font-size="11.00" fill="gray">Filter</text>
</g>
<g id="clust9" class="cluster"><title>cluster_\Site\Twig\Extension</title>
<path fill="none" stroke="gray" d="M416.273,-866C416.273,-866 533.273,-866 533.273,-866 539.273,-866 545.273,-872 545.273,-878 545.273,-878 545.273,-1088 545.273,-1088 545.273,-1094 539.273,-1100 533.273,-1100 533.273,-1100 416.273,-1100 416.273,-1100 410.273,-1100 404.273,-1094 404.273,-1088 404.273,-1088 404.273,-878 404.273,-878 404.273,-872 410.273,-866 416.273,-866"/>
<text text-anchor="middle" x="474.773" y="-1087.2" font-family="Times New Roman,serif" font-size="11.00" fill="gray">Extension</text>
</g>
<g id="clust10" class="cluster"><title>cluster_\Site\Twig\Node</title>
<path fill="none" stroke="gray" d="M436.773,-786C436.773,-786 512.773,-786 512.773,-786 518.773,-786 524.773,-792 524.773,-798 524.773,-798 524.773,-846 524.773,-846 524.773,-852 518.773,-858 512.773,-858 512.773,-858 436.773,-858 436.773,-858 430.773,-858 424.773,-852 424.773,-846 424.773,-846 424.773,-798 424.773,-798 424.773,-792 430.773,-786 436.773,-786"/>
<text text-anchor="middle" x="474.773" y="-845.2" font-family="Times New Roman,serif" font-size="11.00" fill="gray">Node</text>
</g>
<g id="clust12" class="cluster"><title>cluster_\Site\Model</title>
<path fill="none" stroke="gray" d="M446.773,-590C446.773,-590 502.773,-590 502.773,-590 508.773,-590 514.773,-596 514.773,-602 514.773,-602 514.773,-758 514.773,-758 514.773,-764 508.773,-770 502.773,-770 502.773,-770 446.773,-770 446.773,-770 440.773,-770 434.773,-764 434.773,-758 434.773,-758 434.773,-602 434.773,-602 434.773,-596 440.773,-590 446.773,-590"/>
<text text-anchor="middle" x="474.773" y="-757.2" font-family="Times New Roman,serif" font-size="11.00" fill="gray">Model</text>
</g>
<g id="clust11" class="cluster"><title>cluster_\Site\Service</title>
<path fill="none" stroke="gray" d="M446.773,-402C446.773,-402 502.773,-402 502.773,-402 508.773,-402 514.773,-408 514.773,-414 514.773,-414 514.773,-570 514.773,-570 514.773,-576 508.773,-582 502.773,-582 502.773,-582 446.773,-582 446.773,-582 440.773,-582 434.773,-576 434.773,-570 434.773,-570 434.773,-414 434.773,-414 434.773,-408 440.773,-402 446.773,-402"/>
<text text-anchor="middle" x="474.773" y="-569.2" font-family="Times New Roman,serif" font-size="11.00" fill="gray">Service</text>
</g>
<g id="clust13" class="cluster"><title>cluster_\Site\Util</title>
<path fill="none" stroke="gray" d="M429.773,-322C429.773,-322 519.773,-322 519.773,-322 525.773,-322 531.773,-328 531.773,-334 531.773,-334 531.773,-382 531.773,-382 531.773,-388 525.773,-394 519.773,-394 519.773,-394 429.773,-394 429.773,-394 423.773,-394 417.773,-388 417.773,-382 417.773,-382 417.773,-334 417.773,-334 417.773,-328 423.773,-322 429.773,-322"/>
<text text-anchor="middle" x="474.773" y="-381.2" font-family="Times New Roman,serif" font-size="11.00" fill="gray">Util</text>
</g>
<!-- \\Site\\TwigExtension\\Node\\Twig_Extensions_Node_Trans -->
<g id="node1" class="node"><title>\\Site\\TwigExtension\\Node\\Twig_Extensions_Node_Trans</title>
<polygon fill="none" stroke="black" points="570.773,-1348 378.773,-1348 378.773,-1312 570.773,-1312 570.773,-1348"/>
<text text-anchor="middle" x="474.773" y="-1327.2" font-family="Courier,monospace" font-size="11.00">Twig_Extensions_Node_Trans</text>
</g>
<!-- \\Twig_Node -->
<g id="node27" class="node"><title>\\Twig_Node</title>
<ellipse fill="none" stroke="black" cx="153.386" cy="-234" rx="56.59" ry="18"/>
<text text-anchor="middle" x="153.386" y="-230.3" font-family="Times New Roman,serif" font-size="14.00" fill="gray">\Twig_Node</text>
</g>
<!-- \\Site\\TwigExtension\\Node\\Twig_Extensions_Node_Trans&#45;&gt;\\Twig_Node -->
<g id="edge1" class="edge"><title>\\Site\\TwigExtension\\Node\\Twig_Extensions_Node_Trans&#45;&gt;\\Twig_Node</title>
<path fill="none" stroke="black" d="M425.126,-1311.95C402.859,-1301.29 378.08,-1285.58 362.773,-1264 242.414,-1094.33 171.127,-409.623 156.993,-262.098"/>
<polygon fill="none" stroke="black" points="160.468,-261.673 156.039,-252.048 153.5,-262.334 160.468,-261.673"/>
</g>
<!-- \\Site\\Controller\\UserSave -->
<g id="node2" class="node"><title>\\Site\\Controller\\UserSave</title>
<polygon fill="none" stroke="black" points="510.273,-1888 439.273,-1888 439.273,-1852 510.273,-1852 510.273,-1888"/>
<text text-anchor="middle" x="474.773" y="-1867.2" font-family="Courier,monospace" font-size="11.00">UserSave</text>
</g>
<!-- \\Site\\Controller\\IController -->
<g id="node11" class="node"><title>\\Site\\Controller\\IController</title>
<polygon fill="none" stroke="black" points="198.886,-1672 107.886,-1672 107.886,-1636 198.886,-1636 198.886,-1672"/>
<text text-anchor="middle" x="153.386" y="-1651.2" font-family="Courier,monospace" font-size="11.00">IController</text>
</g>
<!-- \\Site\\Controller\\UserSave&#45;&gt;\\Site\\Controller\\IController -->
<g id="edge2" class="edge"><title>\\Site\\Controller\\UserSave&#45;&gt;\\Site\\Controller\\IController</title>
<path fill="none" stroke="black" stroke-dasharray="1,5" d="M439.177,-1866.09C416.439,-1862.47 386.602,-1855.64 362.773,-1843 283.046,-1800.72 209.85,-1721.01 175.29,-1679.93"/>
<polygon fill="none" stroke="black" points="177.793,-1677.47 168.708,-1672.02 172.411,-1681.94 177.793,-1677.47"/>
</g>
<!-- \\Site\\Controller\\UserSelect -->
<g id="node3" class="node"><title>\\Site\\Controller\\UserSelect</title>
<polygon fill="none" stroke="black" points="516.773,-1834 432.773,-1834 432.773,-1798 516.773,-1798 516.773,-1834"/>
<text text-anchor="middle" x="474.773" y="-1813.2" font-family="Courier,monospace" font-size="11.00">UserSelect</text>
</g>
<!-- \\Site\\Controller\\UserSelect&#45;&gt;\\Site\\Controller\\IController -->
<g id="edge5" class="edge"><title>\\Site\\Controller\\UserSelect&#45;&gt;\\Site\\Controller\\IController</title>
<path fill="none" stroke="black" stroke-dasharray="1,5" d="M432.639,-1809.42C411.246,-1805.15 384.995,-1798.57 362.773,-1789 294.681,-1759.67 224.023,-1708.81 184.982,-1678.6"/>
<polygon fill="none" stroke="black" points="186.717,-1675.51 176.681,-1672.11 182.407,-1681.03 186.717,-1675.51"/>
</g>
<!-- \\Site\\Controller\\Home -->
<g id="node4" class="node"><title>\\Site\\Controller\\Home</title>
<polygon fill="none" stroke="black" points="501.773,-1780 447.773,-1780 447.773,-1744 501.773,-1744 501.773,-1780"/>
<text text-anchor="middle" x="474.773" y="-1759.2" font-family="Courier,monospace" font-size="11.00">Home</text>
</g>
<!-- \\Site\\Controller\\Home&#45;&gt;\\Site\\Controller\\IController -->
<g id="edge9" class="edge"><title>\\Site\\Controller\\Home&#45;&gt;\\Site\\Controller\\IController</title>
<path fill="none" stroke="black" stroke-dasharray="1,5" d="M447.489,-1756.63C424.826,-1751.76 391.341,-1743.98 362.773,-1735 308.154,-1717.82 247.291,-1693.55 205.514,-1676.06"/>
<polygon fill="none" stroke="black" points="206.685,-1672.75 196.111,-1672.1 203.97,-1679.21 206.685,-1672.75"/>
</g>
<!-- \\Site\\Controller\\Message -->
<g id="node5" class="node"><title>\\Site\\Controller\\Message</title>
<polygon fill="none" stroke="black" points="506.773,-1726 442.773,-1726 442.773,-1690 506.773,-1690 506.773,-1726"/>
<text text-anchor="middle" x="474.773" y="-1705.2" font-family="Courier,monospace" font-size="11.00">Message</text>
</g>
<!-- \\Site\\Controller\\Message&#45;&gt;\\Site\\Controller\\IController -->
<g id="edge11" class="edge"><title>\\Site\\Controller\\Message&#45;&gt;\\Site\\Controller\\IController</title>
<path fill="none" stroke="black" stroke-dasharray="1,5" d="M442.567,-1702.72C388.371,-1693.56 276.215,-1674.6 208.918,-1663.22"/>
<polygon fill="none" stroke="black" points="209.367,-1659.75 198.923,-1661.53 208.2,-1666.65 209.367,-1659.75"/>
</g>
<!-- \\Site\\Controller\\AllMessages -->
<g id="node6" class="node"><title>\\Site\\Controller\\AllMessages</title>
<polygon fill="none" stroke="black" points="520.273,-1672 429.273,-1672 429.273,-1636 520.273,-1636 520.273,-1672"/>
<text text-anchor="middle" x="474.773" y="-1651.2" font-family="Courier,monospace" font-size="11.00">AllMessages</text>
</g>
<!-- \\Site\\Controller\\AllMessages&#45;&gt;\\Site\\Controller\\IController -->
<g id="edge12" class="edge"><title>\\Site\\Controller\\AllMessages&#45;&gt;\\Site\\Controller\\IController</title>
<path fill="none" stroke="black" stroke-dasharray="1,5" d="M429.027,-1654C371.376,-1654 271.207,-1654 209.092,-1654"/>
<polygon fill="none" stroke="black" points="209.086,-1650.5 199.086,-1654 209.086,-1657.5 209.086,-1650.5"/>
</g>
<!-- \\Site\\Controller\\Users -->
<g id="node7" class="node"><title>\\Site\\Controller\\Users</title>
<polygon fill="none" stroke="black" points="501.773,-1618 447.773,-1618 447.773,-1582 501.773,-1582 501.773,-1618"/>
<text text-anchor="middle" x="474.773" y="-1597.2" font-family="Courier,monospace" font-size="11.00">Users</text>
</g>
<!-- \\Site\\Controller\\Users&#45;&gt;\\Site\\Controller\\IController -->
<g id="edge14" class="edge"><title>\\Site\\Controller\\Users&#45;&gt;\\Site\\Controller\\IController</title>
<path fill="none" stroke="black" stroke-dasharray="1,5" d="M447.636,-1604.42C395.665,-1613.21 278.381,-1633.04 208.911,-1644.78"/>
<polygon fill="none" stroke="black" points="208.298,-1641.34 199.022,-1646.45 209.465,-1648.24 208.298,-1641.34"/>
</g>
<!-- \\Site\\Controller\\User -->
<g id="node8" class="node"><title>\\Site\\Controller\\User</title>
<polygon fill="none" stroke="black" points="501.773,-1564 447.773,-1564 447.773,-1528 501.773,-1528 501.773,-1564"/>
<text text-anchor="middle" x="474.773" y="-1543.2" font-family="Courier,monospace" font-size="11.00">User</text>
</g>
<!-- \\Site\\Controller\\User&#45;&gt;\\Site\\Controller\\IController -->
<g id="edge16" class="edge"><title>\\Site\\Controller\\User&#45;&gt;\\Site\\Controller\\IController</title>
<path fill="none" stroke="black" stroke-dasharray="1,5" d="M447.489,-1551.37C424.826,-1556.24 391.341,-1564.02 362.773,-1573 308.154,-1590.18 247.291,-1614.45 205.514,-1631.94"/>
<polygon fill="none" stroke="black" points="203.97,-1628.79 196.111,-1635.9 206.685,-1635.25 203.97,-1628.79"/>
</g>
<!-- \\Site\\Controller\\Debats -->
<g id="node9" class="node"><title>\\Site\\Controller\\Debats</title>
<polygon fill="none" stroke="black" points="503.273,-1510 446.273,-1510 446.273,-1474 503.273,-1474 503.273,-1510"/>
<text text-anchor="middle" x="474.773" y="-1489.2" font-family="Courier,monospace" font-size="11.00">Debats</text>
</g>
<!-- \\Site\\Controller\\Debats&#45;&gt;\\Site\\Controller\\IController -->
<g id="edge18" class="edge"><title>\\Site\\Controller\\Debats&#45;&gt;\\Site\\Controller\\IController</title>
<path fill="none" stroke="black" stroke-dasharray="1,5" d="M446.032,-1496.08C423.063,-1500.08 389.913,-1507.31 362.773,-1519 294.681,-1548.33 224.023,-1599.19 184.982,-1629.4"/>
<polygon fill="none" stroke="black" points="182.407,-1626.97 176.681,-1635.89 186.717,-1632.49 182.407,-1626.97"/>
</g>
<!-- \\Site\\Controller\\Debat -->
<g id="node10" class="node"><title>\\Site\\Controller\\Debat</title>
<polygon fill="none" stroke="black" points="501.773,-1456 447.773,-1456 447.773,-1420 501.773,-1420 501.773,-1456"/>
<text text-anchor="middle" x="474.773" y="-1435.2" font-family="Courier,monospace" font-size="11.00">Debat</text>
</g>
<!-- \\Site\\Controller\\Debat&#45;&gt;\\Site\\Controller\\IController -->
<g id="edge20" class="edge"><title>\\Site\\Controller\\Debat&#45;&gt;\\Site\\Controller\\IController</title>
<path fill="none" stroke="black" stroke-dasharray="1,5" d="M447.345,-1440.69C423.993,-1443.92 389.58,-1450.78 362.773,-1465 283.046,-1507.28 209.85,-1586.99 175.29,-1628.07"/>
<polygon fill="none" stroke="black" points="172.411,-1626.06 168.708,-1635.98 177.793,-1630.53 172.411,-1626.06"/>
</g>
<!-- \\Site\\Twig\\TokenParser\\TokenParser_Trans -->
<g id="node12" class="node"><title>\\Site\\Twig\\TokenParser\\TokenParser_Trans</title>
<polygon fill="none" stroke="black" points="540.273,-1232 409.273,-1232 409.273,-1196 540.273,-1196 540.273,-1232"/>
<text text-anchor="middle" x="474.773" y="-1211.2" font-family="Courier,monospace" font-size="11.00">TokenParser_Trans</text>
</g>
<!-- \\Twig_Extensions_TokenParser_Trans -->
<g id="node28" class="node"><title>\\Twig_Extensions_TokenParser_Trans</title>
<ellipse fill="none" stroke="black" cx="153.386" cy="-180" rx="153.273" ry="18"/>
<text text-anchor="middle" x="153.386" y="-176.3" font-family="Times New Roman,serif" font-size="14.00" fill="gray">\Twig_Extensions_TokenParser_Trans</text>
</g>
<!-- \\Site\\Twig\\TokenParser\\TokenParser_Trans&#45;&gt;\\Twig_Extensions_TokenParser_Trans -->
<g id="edge3" class="edge"><title>\\Site\\Twig\\TokenParser\\TokenParser_Trans&#45;&gt;\\Twig_Extensions_TokenParser_Trans</title>
<path fill="none" stroke="black" d="M409.15,-1210.25C391.56,-1205.97 374.224,-1198.1 362.773,-1184 225.685,-1015.18 451.202,-369.58 306.773,-207 302.657,-202.368 298.047,-198.351 293.064,-194.876"/>
<polygon fill="none" stroke="black" points="294.701,-191.774 284.347,-189.527 291.04,-197.74 294.701,-191.774"/>
</g>
<!-- \\Site\\Twig\\Filter\\FormatString -->
<g id="node13" class="node"><title>\\Site\\Twig\\Filter\\FormatString</title>
<polygon fill="none" stroke="black" points="523.773,-1152 425.773,-1152 425.773,-1116 523.773,-1116 523.773,-1152"/>
<text text-anchor="middle" x="474.773" y="-1131.2" font-family="Courier,monospace" font-size="11.00">FormatString</text>
</g>
<!-- \\Twig_Extension -->
<g id="node29" class="node"><title>\\Twig_Extension</title>
<ellipse fill="none" stroke="black" cx="153.386" cy="-126" rx="72.2875" ry="18"/>
<text text-anchor="middle" x="153.386" y="-122.3" font-family="Times New Roman,serif" font-size="14.00" fill="gray">\Twig_Extension</text>
</g>
<!-- \\Site\\Twig\\Filter\\FormatString&#45;&gt;\\Twig_Extension -->
<g id="edge4" class="edge"><title>\\Site\\Twig\\Filter\\FormatString&#45;&gt;\\Twig_Extension</title>
<path fill="none" stroke="black" d="M425.591,-1133.29C403.011,-1130.27 377.825,-1122.51 362.773,-1104 229.193,-939.765 447.495,-311.158 306.773,-153 288.242,-132.173 259.699,-123.793 232.305,-121.192"/>
<polygon fill="none" stroke="black" points="232.507,-117.698 222.285,-120.483 232.013,-124.68 232.507,-117.698"/>
</g>
<!-- \\Site\\Twig\\Extension\\Session -->
<g id="node14" class="node"><title>\\Site\\Twig\\Extension\\Session</title>
<polygon fill="none" stroke="black" points="506.773,-1072 442.773,-1072 442.773,-1036 506.773,-1036 506.773,-1072"/>
<text text-anchor="middle" x="474.773" y="-1051.2" font-family="Courier,monospace" font-size="11.00">Session</text>
</g>
<!-- \\Site\\Twig\\Extension\\Session&#45;&gt;\\Twig_Extension -->
<g id="edge6" class="edge"><title>\\Site\\Twig\\Extension\\Session&#45;&gt;\\Twig_Extension</title>
<path fill="none" stroke="black" d="M442.531,-1055.67C416.949,-1055.18 381.958,-1049.87 362.773,-1027 237.68,-877.906 436.517,-298.064 306.773,-153 288.188,-132.221 259.636,-123.85 232.248,-121.243"/>
<polygon fill="none" stroke="black" points="232.454,-117.749 222.231,-120.531 231.958,-124.731 232.454,-117.749"/>
</g>
<!-- \\Site\\Twig\\Extension\\I18n -->
<g id="node15" class="node"><title>\\Site\\Twig\\Extension\\I18n</title>
<polygon fill="none" stroke="black" points="501.773,-1018 447.773,-1018 447.773,-982 501.773,-982 501.773,-1018"/>
<text text-anchor="middle" x="474.773" y="-997.2" font-family="Courier,monospace" font-size="11.00">I18n</text>
</g>
<!-- \\Site\\Twig\\Extension\\I18n&#45;&gt;\\Twig_Extension -->
<g id="edge8" class="edge"><title>\\Site\\Twig\\Extension\\I18n&#45;&gt;\\Twig_Extension</title>
<path fill="none" stroke="black" d="M447.76,-1001.69C421.946,-1001.8 383.348,-997.418 362.773,-973 245.082,-833.326 428.821,-288.883 306.773,-153 288.144,-132.26 259.584,-123.897 232.202,-121.284"/>
<polygon fill="none" stroke="black" points="232.412,-117.791 222.188,-120.57 231.913,-124.773 232.412,-117.791"/>
</g>
<!-- \\Site\\Twig\\Extension\\OnloadMessage -->
<g id="node16" class="node"><title>\\Site\\Twig\\Extension\\OnloadMessage</title>
<polygon fill="none" stroke="black" points="526.773,-964 422.773,-964 422.773,-928 526.773,-928 526.773,-964"/>
<text text-anchor="middle" x="474.773" y="-943.2" font-family="Courier,monospace" font-size="11.00">OnloadMessage</text>
</g>
<!-- \\Site\\Twig\\Extension\\OnloadMessage&#45;&gt;\\Twig_Extension -->
<g id="edge13" class="edge"><title>\\Site\\Twig\\Extension\\OnloadMessage&#45;&gt;\\Twig_Extension</title>
<path fill="none" stroke="black" d="M422.689,-946.221C400.992,-943.496 377.383,-936.255 362.773,-919 252.483,-788.744 421.126,-279.704 306.773,-153 288.175,-132.393 259.77,-124.022 232.502,-121.366"/>
<polygon fill="none" stroke="black" points="232.757,-117.875 222.527,-120.634 232.244,-124.856 232.757,-117.875"/>
</g>
<!-- \\Site\\Twig\\Extension\\PathOfController -->
<g id="node17" class="node"><title>\\Site\\Twig\\Extension\\PathOfController</title>
<polygon fill="none" stroke="black" points="537.273,-910 412.273,-910 412.273,-874 537.273,-874 537.273,-910"/>
<text text-anchor="middle" x="474.773" y="-889.2" font-family="Courier,monospace" font-size="11.00">PathOfController</text>
</g>
<!-- \\Site\\Twig\\Extension\\PathOfController&#45;&gt;\\Twig_Extension -->
<g id="edge15" class="edge"><title>\\Site\\Twig\\Extension\\PathOfController&#45;&gt;\\Twig_Extension</title>
<path fill="none" stroke="black" d="M412.238,-888.772C393.682,-884.651 375.013,-876.745 362.773,-862 261.826,-740.392 413.006,-270.018 306.773,-153 288.197,-132.538 259.947,-124.16 232.796,-121.459"/>
<polygon fill="none" stroke="black" points="232.7,-117.942 222.467,-120.689 232.179,-124.923 232.7,-117.942"/>
</g>
<!-- \\Site\\Twig\\Node\\Node_Trans -->
<g id="node18" class="node"><title>\\Site\\Twig\\Node\\Node_Trans</title>
<polygon fill="none" stroke="black" points="516.773,-830 432.773,-830 432.773,-794 516.773,-794 516.773,-830"/>
<text text-anchor="middle" x="474.773" y="-809.2" font-family="Courier,monospace" font-size="11.00">Node_Trans</text>
</g>
<!-- \\Twig_Extensions_Node_Trans -->
<g id="node30" class="node"><title>\\Twig_Extensions_Node_Trans</title>
<ellipse fill="none" stroke="black" cx="153.386" cy="-72" rx="126.978" ry="18"/>
<text text-anchor="middle" x="153.386" y="-68.3" font-family="Times New Roman,serif" font-size="14.00" fill="gray">\Twig_Extensions_Node_Trans</text>
</g>
<!-- \\Site\\Twig\\Node\\Node_Trans&#45;&gt;\\Twig_Extensions_Node_Trans -->
<g id="edge7" class="edge"><title>\\Site\\Twig\\Node\\Node_Trans&#45;&gt;\\Twig_Extensions_Node_Trans</title>
<path fill="none" stroke="black" d="M432.504,-808.819C408.292,-804.65 379.297,-795.21 362.773,-774 270.268,-655.267 408.164,-210.242 306.773,-99 300.191,-91.7784 292.403,-86.0637 283.886,-81.5736"/>
<polygon fill="none" stroke="black" points="285.309,-78.3752 274.766,-77.3257 282.353,-84.7207 285.309,-78.3752"/>
</g>
<!-- \\Site\\Service\\Route -->
<g id="node19" class="node"><title>\\Site\\Service\\Route</title>
<polygon fill="none" stroke="black" points="501.773,-554 447.773,-554 447.773,-518 501.773,-518 501.773,-554"/>
<text text-anchor="middle" x="474.773" y="-533.2" font-family="Courier,monospace" font-size="11.00">Route</text>
</g>
<!-- \\Site\\Service\\Config -->
<g id="node20" class="node"><title>\\Site\\Service\\Config</title>
<polygon fill="none" stroke="black" points="503.273,-500 446.273,-500 446.273,-464 503.273,-464 503.273,-500"/>
<text text-anchor="middle" x="474.773" y="-479.2" font-family="Courier,monospace" font-size="11.00">Config</text>
</g>
<!-- \\Site\\Service\\Session -->
<g id="node21" class="node"><title>\\Site\\Service\\Session</title>
<polygon fill="none" stroke="black" points="506.773,-446 442.773,-446 442.773,-410 506.773,-410 506.773,-446"/>
<text text-anchor="middle" x="474.773" y="-425.2" font-family="Courier,monospace" font-size="11.00">Session</text>
</g>
<!-- \\Site\\Model\\User -->
<g id="node22" class="node"><title>\\Site\\Model\\User</title>
<polygon fill="none" stroke="black" points="501.773,-742 447.773,-742 447.773,-706 501.773,-706 501.773,-742"/>
<text text-anchor="middle" x="474.773" y="-721.2" font-family="Courier,monospace" font-size="11.00">User</text>
</g>
<!-- \\Illuminate\\Database\\Eloquent\\Model -->
<g id="node31" class="node"><title>\\Illuminate\\Database\\Eloquent\\Model</title>
<ellipse fill="none" stroke="black" cx="153.386" cy="-18" rx="143.775" ry="18"/>
<text text-anchor="middle" x="153.386" y="-14.3" font-family="Times New Roman,serif" font-size="14.00" fill="gray">\Illuminate\Database\Eloquent\Model</text>
</g>
<!-- \\Site\\Model\\User&#45;&gt;\\Illuminate\\Database\\Eloquent\\Model -->
<g id="edge10" class="edge"><title>\\Site\\Model\\User&#45;&gt;\\Illuminate\\Database\\Eloquent\\Model</title>
<path fill="none" stroke="black" d="M447.367,-725.619C421.626,-725.612 383.431,-721.087 362.773,-697 268.099,-586.616 404.889,-152.335 306.773,-45 301.901,-39.6704 296.373,-35.1622 290.379,-31.3618"/>
<polygon fill="none" stroke="black" points="291.725,-28.1049 281.288,-26.2868 288.313,-34.2171 291.725,-28.1049"/>
</g>
<!-- \\Site\\Model\\Element -->
<g id="node23" class="node"><title>\\Site\\Model\\Element</title>
<polygon fill="none" stroke="black" points="506.773,-688 442.773,-688 442.773,-652 506.773,-652 506.773,-688"/>
<text text-anchor="middle" x="474.773" y="-667.2" font-family="Courier,monospace" font-size="11.00">Element</text>
</g>
<!-- \\Site\\Model\\Element&#45;&gt;\\Illuminate\\Database\\Eloquent\\Model -->
<g id="edge17" class="edge"><title>\\Site\\Model\\Element&#45;&gt;\\Illuminate\\Database\\Eloquent\\Model</title>
<path fill="none" stroke="black" d="M442.701,-671.528C417.224,-670.944 382.292,-665.582 362.773,-643 275.491,-542.023 397.203,-143.166 306.773,-45 301.88,-39.6892 296.336,-35.1958 290.33,-31.4069"/>
<polygon fill="none" stroke="black" points="291.664,-28.1441 281.223,-26.3465 288.264,-34.263 291.664,-28.1441"/>
</g>
<!-- \\Site\\Model\\Debat -->
<g id="node24" class="node"><title>\\Site\\Model\\Debat</title>
<polygon fill="none" stroke="black" points="501.773,-634 447.773,-634 447.773,-598 501.773,-598 501.773,-634"/>
<text text-anchor="middle" x="474.773" y="-613.2" font-family="Courier,monospace" font-size="11.00">Debat</text>
</g>
<!-- \\Site\\Model\\Debat&#45;&gt;\\Illuminate\\Database\\Eloquent\\Model -->
<g id="edge19" class="edge"><title>\\Site\\Model\\Debat&#45;&gt;\\Illuminate\\Database\\Eloquent\\Model</title>
<path fill="none" stroke="black" d="M447.384,-616.77C421.655,-615.963 383.47,-610.326 362.773,-586 284.449,-493.947 389.096,-133.494 306.773,-45 301.855,-39.7131 296.29,-35.2387 290.268,-31.4645"/>
<polygon fill="none" stroke="black" points="291.586,-28.1943 281.14,-26.4227 288.201,-34.3216 291.586,-28.1943"/>
</g>
<!-- \\Site\\Util\\AjaxResponse -->
<g id="node25" class="node"><title>\\Site\\Util\\AjaxResponse</title>
<polygon fill="none" stroke="black" points="523.773,-366 425.773,-366 425.773,-330 523.773,-330 523.773,-366"/>
<text text-anchor="middle" x="474.773" y="-345.2" font-family="Courier,monospace" font-size="11.00">AjaxResponse</text>
</g>
<!-- \\Site\\App -->
<g id="node26" class="node"><title>\\Site\\App</title>
<polygon fill="none" stroke="black" points="501.773,-312 447.773,-312 447.773,-276 501.773,-276 501.773,-312"/>
<text text-anchor="middle" x="474.773" y="-291.2" font-family="Courier,monospace" font-size="11.00">App</text>
</g>
</g>
</svg>
